<svg width="24" height="24" viewBox="0 0 24 24" fill="none" xmlns="http://www.w3.org/2000/svg">
    <path d="M13.5714 6.13591C13.038 5.99296 12.7214 5.44463 12.8643 4.91116C13.0073 4.3777 13.5556 4.06111 14.0891 4.20405L16.8211 4.93611C17.3546 5.07905 17.6712 5.62738 17.5282 6.16085L16.7962 8.8929C16.6532 9.42637 16.1049 9.74295 15.5714 9.60001C15.038 9.45707 14.7214 8.90873 14.8643 8.37526L14.9715 7.97516L10.1341 10.7681C9.6558 11.0442 9.04421 10.8803 8.76807 10.402C8.49192 9.92374 8.6558 9.31215 9.13409 9.03601L13.9715 6.24311L13.5714 6.13591Z" fill="#7561FA"/>
    <path d="M10.4286 17.8641C10.962 18.007 11.2786 18.5554 11.1357 19.0888C10.9927 19.6223 10.4444 19.9389 9.91094 19.7959L7.17889 19.0639C6.64542 18.921 6.32884 18.3726 6.47178 17.8391L7.20383 15.1071C7.34677 14.5736 7.89511 14.257 8.42857 14.4C8.96204 14.5429 9.27862 15.0913 9.13568 15.6247L9.02847 16.0248L13.8659 13.2319C14.3442 12.9558 14.9558 13.1197 15.2319 13.598C15.5081 14.0763 15.3442 14.6879 14.8659 14.964L10.0285 17.7569L10.4286 17.8641Z" fill="#7561FA"/>
</svg>