<svg width="24" height="24" viewBox="0 0 24 24" fill="none" xmlns="http://www.w3.org/2000/svg">
<rect width="24" height="24" rx="8" fill="url(#paint0_linear_456_4478)"/>
<path d="M20 12C20 10.2721 19.4406 8.5907 18.4054 7.20723C17.3703 5.82376 15.915 4.81263 14.2573 4.32508L13.5632 6.68507C14.7112 7.0227 15.7189 7.72292 16.4358 8.68098C17.1526 9.63904 17.54 10.8034 17.54 12H20Z" fill="white"/>
<path d="M17.8273 17.4811C19.0307 16.2017 19.7796 14.5618 19.9584 12.8145L18.6944 12.6852C18.544 14.1549 17.914 15.5344 16.9018 16.6106L17.8273 17.4811Z" fill="white"/>
<path d="M13.4196 4.12696C11.9652 3.86471 10.4665 4.01047 9.08984 4.54809C7.71319 5.0857 6.51237 5.99416 5.62059 7.17267C4.7288 8.35119 4.1809 9.75371 4.03766 11.2247C3.89443 12.6956 4.16145 14.1775 4.80913 15.5059L9.315 13.3091C9.07317 12.813 8.97346 12.2597 9.02695 11.7105C9.08043 11.1613 9.28501 10.6376 9.61799 10.1975C9.95098 9.75748 10.3994 9.41828 10.9134 9.21754C11.4274 9.0168 11.987 8.96237 12.5301 9.06029L13.4196 4.12696Z" fill="white"/>
<path d="M5.23246 16.2662C5.84793 17.2425 6.66736 18.0741 7.6345 18.7039C8.60165 19.3337 9.69362 19.7468 10.8354 19.9148C11.9773 20.0828 13.142 20.0017 14.2495 19.6772C15.3571 19.3527 16.3813 18.7924 17.2519 18.0347L14.6059 14.9943C14.1739 15.3702 13.6657 15.6482 13.1162 15.8093C12.5666 15.9703 11.9887 16.0105 11.4222 15.9271C10.8556 15.8438 10.3138 15.6388 9.83393 15.3263C9.35406 15.0138 8.94747 14.6012 8.64209 14.1168L5.23246 16.2662Z" fill="white"/>
<defs>
<linearGradient id="paint0_linear_456_4478" x1="24" y1="0" x2="0" y2="24" gradientUnits="userSpaceOnUse">
<stop stop-color="#FF7A00"/>
<stop offset="1" stop-color="#FFE600"/>
</linearGradient>
</defs>
</svg>
