<svg width="24" height="24" viewBox="0 0 24 24" fill="none" xmlns="http://www.w3.org/2000/svg">
<rect width="24" height="24" rx="8" fill="url(#paint0_linear_456_4489)"/>
<path d="M6.50333 7.41452C6.57426 7.57429 6.61537 7.74174 6.59052 7.92202C6.57344 8.04286 6.52684 8.18607 6.45974 8.28879C6.38208 8.40756 6.26217 8.5517 6.14103 8.62812C6.06461 8.67617 5.94522 8.73084 5.85286 8.73084C5.48174 8.73084 5.18103 8.13719 5.18103 7.40489C5.18103 6.6725 5.76753 5.71777 5.85286 6.07887C5.90836 6.31309 6.00456 6.53561 6.11743 6.74778C6.23226 6.9643 6.39929 7.18114 6.50336 7.41452H6.50333ZM4.75471 13.9122C4.55372 13.7805 4.36207 13.6318 4.20082 13.4529C3.9522 13.1776 3.89754 14.2967 4.25001 14.9388C4.60238 15.5804 5.15171 15.9564 5.47705 15.7776C5.55813 15.7335 5.63631 15.628 5.68032 15.5492C5.7499 15.4235 5.78552 15.2395 5.79629 15.0983C5.80582 14.976 5.77786 14.8278 5.73437 14.7138C5.66955 14.5437 5.55285 14.417 5.41367 14.3108C5.21051 14.156 4.95961 14.0462 4.7547 13.9123L4.75471 13.9122ZM6.36448 14.3109C6.22552 14.417 6.10872 14.5437 6.044 14.7139C6.00061 14.8279 5.97255 14.9761 5.98208 15.0984C5.99295 15.2395 6.02857 15.4236 6.09815 15.5492C6.14195 15.628 6.22003 15.7337 6.30121 15.7777C6.62647 15.9565 7.17599 15.5805 7.52826 14.9389C7.88063 14.2967 7.82605 13.1776 7.57744 13.453C7.41622 13.6318 7.22456 13.7806 7.02355 13.9123C6.81873 14.0462 6.56785 14.156 6.36447 14.3109L6.36448 14.3109ZM4.75471 12.0438C4.55372 11.9121 4.36207 11.7634 4.20082 11.5848C3.9522 11.3093 3.89754 12.4286 4.25001 13.0704C4.60238 13.7121 5.15171 14.0882 5.47705 13.9093C5.55813 13.8648 5.63631 13.7593 5.68032 13.6808C5.7499 13.5552 5.78552 13.3712 5.79629 13.23C5.80582 13.1075 5.77786 12.9595 5.73437 12.8454C5.66955 12.6753 5.55285 12.5482 5.41367 12.4425C5.21051 12.2877 4.95961 12.178 4.7547 12.0438L4.75471 12.0438ZM6.36448 12.4425C6.22552 12.5482 6.10872 12.6751 6.044 12.8454C6.00061 12.9595 5.97255 13.1076 5.98208 13.23C5.99295 13.3711 6.02857 13.5552 6.09815 13.6808C6.14195 13.7593 6.22003 13.8649 6.30121 13.9092C6.62647 14.0881 7.17599 13.7121 7.52826 13.0704C7.88063 12.4285 7.82605 11.3092 7.57744 11.5848C7.41622 11.7634 7.22456 11.9121 7.02355 12.0438C6.81873 12.178 6.56785 12.2877 6.36447 12.4425L6.36448 12.4425ZM4.75471 10.1527C4.55372 10.021 4.36207 9.87232 4.20082 9.6937C3.9522 9.41836 3.89754 10.5375 4.25001 11.1793C4.60238 11.8212 5.15171 12.1969 5.47705 12.0184C5.55813 11.9739 5.63631 11.8684 5.68032 11.7896C5.7499 11.6643 5.78552 11.4802 5.79629 11.3388C5.80582 11.2163 5.77786 11.0683 5.73437 10.9544C5.66955 10.7842 5.55285 10.6572 5.41367 10.5512C5.21051 10.3966 4.95961 10.2869 4.7547 10.1527L4.75471 10.1527ZM6.36448 10.5513C6.22552 10.6571 6.10872 10.7842 6.044 10.9545C6.00061 11.0685 5.97255 11.2164 5.98208 11.3389C5.99295 11.4803 6.02857 11.6644 6.09815 11.7897C6.14195 11.8685 6.22003 11.9741 6.30121 12.0185C6.62647 12.1971 7.17599 11.8213 7.52826 11.1794C7.88063 10.5375 7.82605 9.41836 7.57744 9.69381C7.41622 9.87253 7.22456 10.0213 7.02355 10.1528C6.81873 10.2869 6.56785 10.3966 6.36447 10.5513L6.36448 10.5513ZM4.75471 8.28439C4.55372 8.15267 4.36207 8.00398 4.20082 7.82537C3.9522 7.55003 3.89754 8.66918 4.25001 9.31098C4.60238 9.95298 5.15171 10.3288 5.47705 10.1501C5.55813 10.1056 5.63631 10.0001 5.68032 9.92118C5.7499 9.79589 5.78552 9.61177 5.79629 9.47054C5.80582 9.34804 5.77786 9.20018 5.73437 9.08606C5.66955 8.91583 5.55285 8.78888 5.41367 8.68305C5.21051 8.52825 4.95961 8.41859 4.7547 8.2844L4.75471 8.28439ZM6.36448 8.68294C6.22552 8.78877 6.10872 8.91572 6.044 9.08595C6.00061 9.20006 5.97255 9.34792 5.98208 9.47042C5.99295 9.61177 6.02857 9.79576 6.09815 9.92107C6.14195 9.99987 6.22003 10.1055 6.30121 10.15C6.62647 10.3286 7.17599 9.95285 7.52826 9.31086C7.88063 8.66896 7.82605 7.54981 7.57744 7.82526C7.41622 8.00388 7.22456 8.15277 7.02355 8.28427C6.81873 8.41858 6.56785 8.52823 6.36447 8.68293L6.36448 8.68294ZM5.85937 15.6758C5.84156 15.7057 5.81204 15.7492 5.78005 15.8031C5.74712 15.8573 5.70964 15.9226 5.66801 15.9962C5.64771 16.0325 5.62649 16.0716 5.6037 16.1125C5.59076 16.1328 5.59314 16.1536 5.59894 16.1752C5.60412 16.1964 5.60132 16.2183 5.60174 16.2406C5.59739 16.5974 5.5686 17.0756 5.48504 17.5371C5.46371 17.6522 5.44082 17.7671 5.41276 17.8775C5.38615 17.9885 5.35457 18.0956 5.32164 18.1972C5.28871 18.2989 5.25174 18.3947 5.21416 18.4834C5.19541 18.5279 5.1747 18.569 5.15596 18.6099C5.13681 18.6501 5.11548 18.687 5.09663 18.7236C5.08669 18.7415 5.07892 18.7601 5.06453 18.774C5.04848 18.787 5.03875 18.803 5.04154 18.8265C5.04258 18.8712 5.03916 18.9108 5.0375 18.9503C5.03481 19.0309 5.02756 19.1014 5.02135 19.1626C5.01358 19.2229 5.00592 19.2719 5.00043 19.3064C4.99505 19.3417 4.99225 19.3603 4.99225 19.3603C4.99225 19.3603 5.01099 19.3576 5.04527 19.3504C5.06246 19.3464 5.08389 19.3416 5.10895 19.3359C5.13453 19.3298 5.16404 19.3223 5.19386 19.3107C5.25475 19.2881 5.33396 19.2599 5.414 19.2152C5.45532 19.1936 5.49902 19.1687 5.54209 19.1407C5.56674 19.1279 5.57947 19.107 5.58662 19.0826C5.59552 19.0589 5.61126 19.0388 5.62193 19.0156C5.64554 18.9703 5.67225 18.9237 5.69565 18.8744C5.71833 18.8248 5.7437 18.7741 5.76627 18.7211C5.81121 18.6149 5.85449 18.5021 5.8927 18.3847C5.93081 18.2672 5.96664 18.1455 5.99636 18.0211C6.02784 17.8971 6.05341 17.7704 6.07671 17.6436C6.16845 17.1362 6.19796 16.6285 6.20293 16.2485C6.20397 16.2244 6.20148 16.2016 6.20728 16.1786C6.21339 16.1557 6.21526 16.1336 6.20252 16.1116C6.17995 16.0687 6.1583 16.0276 6.13677 15.9896C6.09328 15.913 6.05217 15.8478 6.0153 15.7942C5.97937 15.7409 5.94582 15.7 5.92459 15.6722C5.90264 15.6443 5.88918 15.63 5.88918 15.63C5.88918 15.63 5.87883 15.646 5.85936 15.6758H5.85937Z" fill="white"/>
<path d="M12.5033 7.41452C12.5743 7.57429 12.6154 7.74174 12.5905 7.92202C12.5734 8.04286 12.5268 8.18607 12.4597 8.28879C12.3821 8.40756 12.2622 8.5517 12.141 8.62812C12.0646 8.67617 11.9452 8.73084 11.8529 8.73084C11.4817 8.73084 11.181 8.13719 11.181 7.40489C11.181 6.6725 11.7675 5.71777 11.8529 6.07887C11.9084 6.31309 12.0046 6.53561 12.1174 6.74778C12.2323 6.9643 12.3993 7.18114 12.5034 7.41452H12.5033ZM10.7547 13.9122C10.5537 13.7805 10.3621 13.6318 10.2008 13.4529C9.9522 13.1776 9.89754 14.2967 10.25 14.9388C10.6024 15.5804 11.1517 15.9564 11.477 15.7776C11.5581 15.7335 11.6363 15.628 11.6803 15.5492C11.7499 15.4235 11.7855 15.2395 11.7963 15.0983C11.8058 14.976 11.7779 14.8278 11.7344 14.7138C11.6695 14.5437 11.5528 14.417 11.4137 14.3108C11.2105 14.156 10.9596 14.0462 10.7547 13.9123L10.7547 13.9122ZM12.3645 14.3109C12.2255 14.417 12.1087 14.5437 12.044 14.7139C12.0006 14.8279 11.9725 14.9761 11.9821 15.0984C11.9929 15.2395 12.0286 15.4236 12.0982 15.5492C12.142 15.628 12.22 15.7337 12.3012 15.7777C12.6265 15.9565 13.176 15.5805 13.5283 14.9389C13.8806 14.2967 13.8261 13.1776 13.5774 13.453C13.4162 13.6318 13.2246 13.7806 13.0236 13.9123C12.8187 14.0462 12.5678 14.156 12.3645 14.3109L12.3645 14.3109ZM10.7547 12.0438C10.5537 11.9121 10.3621 11.7634 10.2008 11.5848C9.9522 11.3093 9.89754 12.4286 10.25 13.0704C10.6024 13.7121 11.1517 14.0882 11.477 13.9093C11.5581 13.8648 11.6363 13.7593 11.6803 13.6808C11.7499 13.5552 11.7855 13.3712 11.7963 13.23C11.8058 13.1075 11.7779 12.9595 11.7344 12.8454C11.6695 12.6753 11.5528 12.5482 11.4137 12.4425C11.2105 12.2877 10.9596 12.178 10.7547 12.0438L10.7547 12.0438ZM12.3645 12.4425C12.2255 12.5482 12.1087 12.6751 12.044 12.8454C12.0006 12.9595 11.9725 13.1076 11.9821 13.23C11.9929 13.3711 12.0286 13.5552 12.0982 13.6808C12.142 13.7593 12.22 13.8649 12.3012 13.9092C12.6265 14.0881 13.176 13.7121 13.5283 13.0704C13.8806 12.4285 13.8261 11.3092 13.5774 11.5848C13.4162 11.7634 13.2246 11.9121 13.0236 12.0438C12.8187 12.178 12.5678 12.2877 12.3645 12.4425L12.3645 12.4425ZM10.7547 10.1527C10.5537 10.021 10.3621 9.87232 10.2008 9.6937C9.9522 9.41836 9.89754 10.5375 10.25 11.1793C10.6024 11.8212 11.1517 12.1969 11.477 12.0184C11.5581 11.9739 11.6363 11.8684 11.6803 11.7896C11.7499 11.6643 11.7855 11.4802 11.7963 11.3388C11.8058 11.2163 11.7779 11.0683 11.7344 10.9544C11.6695 10.7842 11.5528 10.6572 11.4137 10.5512C11.2105 10.3966 10.9596 10.2869 10.7547 10.1527L10.7547 10.1527ZM12.3645 10.5513C12.2255 10.6571 12.1087 10.7842 12.044 10.9545C12.0006 11.0685 11.9725 11.2164 11.9821 11.3389C11.9929 11.4803 12.0286 11.6644 12.0982 11.7897C12.142 11.8685 12.22 11.9741 12.3012 12.0185C12.6265 12.1971 13.176 11.8213 13.5283 11.1794C13.8806 10.5375 13.8261 9.41836 13.5774 9.69381C13.4162 9.87253 13.2246 10.0213 13.0236 10.1528C12.8187 10.2869 12.5678 10.3966 12.3645 10.5513L12.3645 10.5513ZM10.7547 8.28439C10.5537 8.15267 10.3621 8.00398 10.2008 7.82537C9.9522 7.55003 9.89754 8.66918 10.25 9.31098C10.6024 9.95298 11.1517 10.3288 11.477 10.1501C11.5581 10.1056 11.6363 10.0001 11.6803 9.92118C11.7499 9.79589 11.7855 9.61177 11.7963 9.47054C11.8058 9.34804 11.7779 9.20018 11.7344 9.08606C11.6695 8.91583 11.5528 8.78888 11.4137 8.68305C11.2105 8.52825 10.9596 8.41859 10.7547 8.2844L10.7547 8.28439ZM12.3645 8.68294C12.2255 8.78877 12.1087 8.91572 12.044 9.08595C12.0006 9.20006 11.9725 9.34792 11.9821 9.47042C11.9929 9.61177 12.0286 9.79576 12.0982 9.92107C12.142 9.99987 12.22 10.1055 12.3012 10.15C12.6265 10.3286 13.176 9.95285 13.5283 9.31086C13.8806 8.66896 13.8261 7.54981 13.5774 7.82526C13.4162 8.00388 13.2246 8.15277 13.0236 8.28427C12.8187 8.41858 12.5678 8.52823 12.3645 8.68293L12.3645 8.68294ZM11.8594 15.6758C11.8416 15.7057 11.812 15.7492 11.78 15.8031C11.7471 15.8573 11.7096 15.9226 11.668 15.9962C11.6477 16.0325 11.6265 16.0716 11.6037 16.1125C11.5908 16.1328 11.5931 16.1536 11.5989 16.1752C11.6041 16.1964 11.6013 16.2183 11.6017 16.2406C11.5974 16.5974 11.5686 17.0756 11.485 17.5371C11.4637 17.6522 11.4408 17.7671 11.4128 17.8775C11.3861 17.9885 11.3546 18.0956 11.3216 18.1972C11.2887 18.2989 11.2517 18.3947 11.2142 18.4834C11.1954 18.5279 11.1747 18.569 11.156 18.6099C11.1368 18.6501 11.1155 18.687 11.0966 18.7236C11.0867 18.7415 11.0789 18.7601 11.0645 18.774C11.0485 18.787 11.0387 18.803 11.0415 18.8265C11.0426 18.8712 11.0392 18.9108 11.0375 18.9503C11.0348 19.0309 11.0276 19.1014 11.0213 19.1626C11.0136 19.2229 11.0059 19.2719 11.0004 19.3064C10.995 19.3417 10.9923 19.3603 10.9923 19.3603C10.9923 19.3603 11.011 19.3576 11.0453 19.3504C11.0625 19.3464 11.0839 19.3416 11.109 19.3359C11.1345 19.3298 11.164 19.3223 11.1939 19.3107C11.2547 19.2881 11.334 19.2599 11.414 19.2152C11.4553 19.1936 11.499 19.1687 11.5421 19.1407C11.5667 19.1279 11.5795 19.107 11.5866 19.0826C11.5955 19.0589 11.6113 19.0388 11.6219 19.0156C11.6455 18.9703 11.6722 18.9237 11.6957 18.8744C11.7183 18.8248 11.7437 18.7741 11.7663 18.7211C11.8112 18.6149 11.8545 18.5021 11.8927 18.3847C11.9308 18.2672 11.9666 18.1455 11.9964 18.0211C12.0278 17.8971 12.0534 17.7704 12.0767 17.6436C12.1685 17.1362 12.198 16.6285 12.2029 16.2485C12.204 16.2244 12.2015 16.2016 12.2073 16.1786C12.2134 16.1557 12.2153 16.1336 12.2025 16.1116C12.1799 16.0687 12.1583 16.0276 12.1368 15.9896C12.0933 15.913 12.0522 15.8478 12.0153 15.7942C11.9794 15.7409 11.9458 15.7 11.9246 15.6722C11.9026 15.6443 11.8892 15.63 11.8892 15.63C11.8892 15.63 11.8788 15.646 11.8594 15.6758H11.8594Z" fill="white"/>
<path d="M18.5033 7.41452C18.5743 7.57429 18.6154 7.74174 18.5905 7.92202C18.5734 8.04286 18.5268 8.18607 18.4597 8.28879C18.3821 8.40756 18.2622 8.5517 18.141 8.62812C18.0646 8.67617 17.9452 8.73084 17.8529 8.73084C17.4817 8.73084 17.181 8.13719 17.181 7.40489C17.181 6.6725 17.7675 5.71777 17.8529 6.07887C17.9084 6.31309 18.0046 6.53561 18.1174 6.74778C18.2323 6.9643 18.3993 7.18114 18.5034 7.41452H18.5033ZM16.7547 13.9122C16.5537 13.7805 16.3621 13.6318 16.2008 13.4529C15.9522 13.1776 15.8975 14.2967 16.25 14.9388C16.6024 15.5804 17.1517 15.9564 17.477 15.7776C17.5581 15.7335 17.6363 15.628 17.6803 15.5492C17.7499 15.4235 17.7855 15.2395 17.7963 15.0983C17.8058 14.976 17.7779 14.8278 17.7344 14.7138C17.6695 14.5437 17.5528 14.417 17.4137 14.3108C17.2105 14.156 16.9596 14.0462 16.7547 13.9123L16.7547 13.9122ZM18.3645 14.3109C18.2255 14.417 18.1087 14.5437 18.044 14.7139C18.0006 14.8279 17.9725 14.9761 17.9821 15.0984C17.9929 15.2395 18.0286 15.4236 18.0982 15.5492C18.142 15.628 18.22 15.7337 18.3012 15.7777C18.6265 15.9565 19.176 15.5805 19.5283 14.9389C19.8806 14.2967 19.8261 13.1776 19.5774 13.453C19.4162 13.6318 19.2246 13.7806 19.0236 13.9123C18.8187 14.0462 18.5678 14.156 18.3645 14.3109L18.3645 14.3109ZM16.7547 12.0438C16.5537 11.9121 16.3621 11.7634 16.2008 11.5848C15.9522 11.3093 15.8975 12.4286 16.25 13.0704C16.6024 13.7121 17.1517 14.0882 17.477 13.9093C17.5581 13.8648 17.6363 13.7593 17.6803 13.6808C17.7499 13.5552 17.7855 13.3712 17.7963 13.23C17.8058 13.1075 17.7779 12.9595 17.7344 12.8454C17.6695 12.6753 17.5528 12.5482 17.4137 12.4425C17.2105 12.2877 16.9596 12.178 16.7547 12.0438L16.7547 12.0438ZM18.3645 12.4425C18.2255 12.5482 18.1087 12.6751 18.044 12.8454C18.0006 12.9595 17.9725 13.1076 17.9821 13.23C17.9929 13.3711 18.0286 13.5552 18.0982 13.6808C18.142 13.7593 18.22 13.8649 18.3012 13.9092C18.6265 14.0881 19.176 13.7121 19.5283 13.0704C19.8806 12.4285 19.8261 11.3092 19.5774 11.5848C19.4162 11.7634 19.2246 11.9121 19.0236 12.0438C18.8187 12.178 18.5678 12.2877 18.3645 12.4425L18.3645 12.4425ZM16.7547 10.1527C16.5537 10.021 16.3621 9.87232 16.2008 9.6937C15.9522 9.41836 15.8975 10.5375 16.25 11.1793C16.6024 11.8212 17.1517 12.1969 17.477 12.0184C17.5581 11.9739 17.6363 11.8684 17.6803 11.7896C17.7499 11.6643 17.7855 11.4802 17.7963 11.3388C17.8058 11.2163 17.7779 11.0683 17.7344 10.9544C17.6695 10.7842 17.5528 10.6572 17.4137 10.5512C17.2105 10.3966 16.9596 10.2869 16.7547 10.1527L16.7547 10.1527ZM18.3645 10.5513C18.2255 10.6571 18.1087 10.7842 18.044 10.9545C18.0006 11.0685 17.9725 11.2164 17.9821 11.3389C17.9929 11.4803 18.0286 11.6644 18.0982 11.7897C18.142 11.8685 18.22 11.9741 18.3012 12.0185C18.6265 12.1971 19.176 11.8213 19.5283 11.1794C19.8806 10.5375 19.8261 9.41836 19.5774 9.69381C19.4162 9.87253 19.2246 10.0213 19.0236 10.1528C18.8187 10.2869 18.5678 10.3966 18.3645 10.5513L18.3645 10.5513ZM16.7547 8.28439C16.5537 8.15267 16.3621 8.00398 16.2008 7.82537C15.9522 7.55003 15.8975 8.66918 16.25 9.31098C16.6024 9.95298 17.1517 10.3288 17.477 10.1501C17.5581 10.1056 17.6363 10.0001 17.6803 9.92118C17.7499 9.79589 17.7855 9.61177 17.7963 9.47054C17.8058 9.34804 17.7779 9.20018 17.7344 9.08606C17.6695 8.91583 17.5528 8.78888 17.4137 8.68305C17.2105 8.52825 16.9596 8.41859 16.7547 8.2844L16.7547 8.28439ZM18.3645 8.68294C18.2255 8.78877 18.1087 8.91572 18.044 9.08595C18.0006 9.20006 17.9725 9.34792 17.9821 9.47042C17.9929 9.61177 18.0286 9.79576 18.0982 9.92107C18.142 9.99987 18.22 10.1055 18.3012 10.15C18.6265 10.3286 19.176 9.95285 19.5283 9.31086C19.8806 8.66896 19.8261 7.54981 19.5774 7.82526C19.4162 8.00388 19.2246 8.15277 19.0236 8.28427C18.8187 8.41858 18.5678 8.52823 18.3645 8.68293L18.3645 8.68294ZM17.8594 15.6758C17.8416 15.7057 17.812 15.7492 17.78 15.8031C17.7471 15.8573 17.7096 15.9226 17.668 15.9962C17.6477 16.0325 17.6265 16.0716 17.6037 16.1125C17.5908 16.1328 17.5931 16.1536 17.5989 16.1752C17.6041 16.1964 17.6013 16.2183 17.6017 16.2406C17.5974 16.5974 17.5686 17.0756 17.485 17.5371C17.4637 17.6522 17.4408 17.7671 17.4128 17.8775C17.3861 17.9885 17.3546 18.0956 17.3216 18.1972C17.2887 18.2989 17.2517 18.3947 17.2142 18.4834C17.1954 18.5279 17.1747 18.569 17.156 18.6099C17.1368 18.6501 17.1155 18.687 17.0966 18.7236C17.0867 18.7415 17.0789 18.7601 17.0645 18.774C17.0485 18.787 17.0387 18.803 17.0415 18.8265C17.0426 18.8712 17.0392 18.9108 17.0375 18.9503C17.0348 19.0309 17.0276 19.1014 17.0213 19.1626C17.0136 19.2229 17.0059 19.2719 17.0004 19.3064C16.995 19.3417 16.9923 19.3603 16.9923 19.3603C16.9923 19.3603 17.011 19.3576 17.0453 19.3504C17.0625 19.3464 17.0839 19.3416 17.109 19.3359C17.1345 19.3298 17.164 19.3223 17.1939 19.3107C17.2547 19.2881 17.334 19.2599 17.414 19.2152C17.4553 19.1936 17.499 19.1687 17.5421 19.1407C17.5667 19.1279 17.5795 19.107 17.5866 19.0826C17.5955 19.0589 17.6113 19.0388 17.6219 19.0156C17.6455 18.9703 17.6722 18.9237 17.6957 18.8744C17.7183 18.8248 17.7437 18.7741 17.7663 18.7211C17.8112 18.6149 17.8545 18.5021 17.8927 18.3847C17.9308 18.2672 17.9666 18.1455 17.9964 18.0211C18.0278 17.8971 18.0534 17.7704 18.0767 17.6436C18.1685 17.1362 18.198 16.6285 18.2029 16.2485C18.204 16.2244 18.2015 16.2016 18.2073 16.1786C18.2134 16.1557 18.2153 16.1336 18.2025 16.1116C18.1799 16.0687 18.1583 16.0276 18.1368 15.9896C18.0933 15.913 18.0522 15.8478 18.0153 15.7942C17.9794 15.7409 17.9458 15.7 17.9246 15.6722C17.9026 15.6443 17.8892 15.63 17.8892 15.63C17.8892 15.63 17.8788 15.646 17.8594 15.6758H17.8594Z" fill="white"/>
<defs>
<linearGradient id="paint0_linear_456_4489" x1="24" y1="0" x2="0" y2="24" gradientUnits="userSpaceOnUse">
<stop stop-color="#0094FF"/>
<stop offset="1" stop-color="#0500FF"/>
</linearGradient>
</defs>
</svg>
