<svg width="24" height="24" viewBox="0 0 24 24" fill="none" xmlns="http://www.w3.org/2000/svg">
<rect width="24" height="24" rx="8" fill="url(#paint0_linear_456_4497)"/>
<path d="M13.9219 12.7513C14.1294 12.7513 14.2976 12.5828 14.2976 12.3749C14.2976 12.167 14.1294 11.9985 13.9219 11.9985C13.7144 11.9985 13.5462 12.167 13.5462 12.3749C13.5462 12.5828 13.7144 12.7513 13.9219 12.7513Z" fill="white"/>
<path d="M10.2452 12.7513C10.4527 12.7513 10.6209 12.5828 10.6209 12.3749C10.6209 12.167 10.4527 11.9985 10.2452 11.9985C10.0377 11.9985 9.86949 12.167 9.86949 12.3749C9.86949 12.5828 10.0377 12.7513 10.2452 12.7513Z" fill="white"/>
<path d="M9.4124 10.0739V10.466C9.4124 10.4893 9.40318 10.5117 9.38674 10.5282C9.37031 10.5447 9.34802 10.554 9.32476 10.554H8.95412V10.9254C8.95412 10.9487 8.94487 10.9711 8.9284 10.9876C8.91193 11.0041 8.8896 11.0133 8.8663 11.0133H8.47536C8.45207 11.0133 8.42974 11.0041 8.41327 10.9876C8.3968 10.9711 8.38755 10.9487 8.38755 10.9254V10.554H8.01668C8.00515 10.554 7.99373 10.5517 7.98308 10.5473C7.97243 10.5429 7.96275 10.5364 7.9546 10.5282C7.94645 10.5201 7.93999 10.5104 7.93558 10.4997C7.93117 10.489 7.92891 10.4776 7.92892 10.466V10.0739C7.92891 10.0624 7.93117 10.0509 7.93558 10.0403C7.93999 10.0296 7.94645 10.0199 7.9546 10.0117C7.96275 10.0035 7.97243 9.99706 7.98308 9.99264C7.99373 9.98822 8.00515 9.98594 8.01668 9.98594H8.38737V9.6146C8.38737 9.59126 8.39663 9.56888 8.41309 9.55238C8.42956 9.53588 8.4519 9.52661 8.47519 9.52661H8.86613C8.88942 9.52661 8.91176 9.53588 8.92823 9.55238C8.9447 9.56888 8.95395 9.59126 8.95395 9.6146V9.98594H9.32476C9.34802 9.98599 9.37031 9.99528 9.38674 10.0118C9.40318 10.0283 9.4124 10.0506 9.4124 10.0739Z" fill="white"/>
<path fill-rule="evenodd" clip-rule="evenodd" d="M16.9763 8.68882C17.1873 8.77874 17.3535 8.94822 17.4367 9.162C17.7792 10.0421 18.6896 12.439 18.8859 13.5423C19.1277 14.9 19.0314 16.0015 18.1434 16.5507C17.8481 16.7341 17.4708 16.714 17.1939 16.5042C16.6814 16.1149 16.119 15.5114 15.51 14.8324C15.2053 14.4635 14.8057 14.2458 14.2364 14.2458H9.75078C9.20803 14.2458 8.78192 14.4637 8.47775 14.8324C8.45079 14.8624 8.42388 14.8923 8.39703 14.9222L8.39606 14.9233C7.83417 15.5488 7.30073 16.1427 6.82552 16.5042C6.69035 16.6071 6.52726 16.6666 6.35769 16.6749C6.18813 16.6832 6.02002 16.6399 5.87549 16.5507C5.14378 16.0986 4.81893 14.6939 5.10097 13.5449C5.29793 12.7425 6.12765 10.353 6.49145 9.31718C6.59922 9.01035 6.8497 8.77692 7.16275 8.68882V8.68882C7.16275 8.68882 7.17865 8.16404 7.40128 8.00502C7.40128 8.00502 8.753 7.33711 9.38674 7.33711C9.51632 7.33711 10.0315 7.71913 10.1407 7.76648C10.2498 7.81383 10.3675 7.83826 10.4864 7.83826H13.6717C13.7906 7.83827 13.9083 7.81384 14.0174 7.76649C14.1266 7.71914 14.5415 7.35102 14.7432 7.33711C15.2043 7.30531 16.6407 7.87007 16.7997 8.03682C16.9133 8.15591 16.9763 8.68882 16.9763 8.68882V8.68882ZM15.6413 9.80676C15.8826 9.80676 16.0783 9.61074 16.0783 9.36893C16.0783 9.12712 15.8826 8.9311 15.6413 8.9311C15.3999 8.9311 15.2043 9.12712 15.2043 9.36893C15.2043 9.61074 15.3999 9.80676 15.6413 9.80676ZM15.1802 10.2687C15.1802 10.5105 14.9846 10.7065 14.7432 10.7065C14.5019 10.7065 14.3062 10.5105 14.3062 10.2687C14.3062 10.0269 14.5019 9.83088 14.7432 9.83088C14.9846 9.83088 15.1802 10.0269 15.1802 10.2687ZM15.6413 11.6063C15.8826 11.6063 16.0783 11.4102 16.0783 11.1684C16.0783 10.9266 15.8826 10.7306 15.6413 10.7306C15.3999 10.7306 15.2043 10.9266 15.2043 11.1684C15.2043 11.4102 15.3999 11.6063 15.6413 11.6063ZM16.9763 10.2687C16.9763 10.5105 16.7806 10.7065 16.5393 10.7065C16.2979 10.7065 16.1023 10.5105 16.1023 10.2687C16.1023 10.0269 16.2979 9.83088 16.5393 9.83088C16.7806 9.83088 16.9763 10.0269 16.9763 10.2687ZM14.4802 12.9343C14.7886 12.6253 14.7886 12.1244 14.4802 11.8155C14.1719 11.5065 13.6719 11.5065 13.3636 11.8155C13.0552 12.1244 13.0552 12.6253 13.3636 12.9343C13.6719 13.2432 14.1719 13.2432 14.4802 12.9343ZM14.2976 12.3749C14.2976 12.5828 14.1294 12.7513 13.9219 12.7513C13.7144 12.7513 13.5462 12.5828 13.5462 12.3749C13.5462 12.167 13.7144 11.9985 13.9219 11.9985C14.1294 11.9985 14.2976 12.167 14.2976 12.3749ZM10.8035 11.8155C11.1119 12.1244 11.1119 12.6253 10.8035 12.9343C10.4951 13.2432 9.9952 13.2432 9.68685 12.9343C9.37849 12.6253 9.37849 12.1244 9.68685 11.8155C9.9952 11.5065 10.4951 11.5065 10.8035 11.8155ZM10.2452 12.7513C10.4527 12.7513 10.6209 12.5828 10.6209 12.3749C10.6209 12.167 10.4527 11.9985 10.2452 11.9985C10.0377 11.9985 9.86949 12.167 9.86949 12.3749C9.86949 12.5828 10.0377 12.7513 10.2452 12.7513ZM8.64647 11.38C9.25839 11.38 9.75444 10.883 9.75444 10.2699C9.75444 9.65686 9.25839 9.15985 8.64647 9.15985C8.03455 9.15985 7.5385 9.65686 7.5385 10.2699C7.5385 10.883 8.03455 11.38 8.64647 11.38ZM9.4124 10.0739V10.466C9.4124 10.4893 9.40318 10.5117 9.38674 10.5282C9.37031 10.5447 9.34802 10.554 9.32476 10.554H8.95412V10.9254C8.95412 10.9487 8.94487 10.9711 8.9284 10.9876C8.91193 11.0041 8.8896 11.0133 8.8663 11.0133H8.47536C8.45207 11.0133 8.42974 11.0041 8.41327 10.9876C8.3968 10.9711 8.38755 10.9487 8.38755 10.9254V10.554H8.01668C8.00515 10.554 7.99373 10.5517 7.98308 10.5473C7.97243 10.5429 7.96275 10.5364 7.9546 10.5282C7.94645 10.5201 7.93999 10.5104 7.93558 10.4997C7.93117 10.489 7.92891 10.4776 7.92892 10.466V10.0739C7.92891 10.0624 7.93117 10.0509 7.93558 10.0403C7.93999 10.0296 7.94645 10.0199 7.9546 10.0117C7.96275 10.0035 7.97243 9.99706 7.98308 9.99264C7.99373 9.98822 8.00515 9.98594 8.01668 9.98594H8.38737V9.6146C8.38737 9.59126 8.39663 9.56888 8.41309 9.55238C8.42956 9.53588 8.4519 9.52661 8.47519 9.52661H8.86613C8.88942 9.52661 8.91176 9.53588 8.92823 9.55238C8.9447 9.56888 8.95395 9.59126 8.95395 9.6146V9.98594H9.32476C9.34802 9.98599 9.37031 9.99528 9.38674 10.0118C9.40318 10.0283 9.4124 10.0506 9.4124 10.0739Z" fill="white"/>
<defs>
<linearGradient id="paint0_linear_456_4497" x1="24" y1="0" x2="0" y2="24" gradientUnits="userSpaceOnUse">
<stop stop-color="#00E409"/>
<stop offset="1" stop-color="#0085FF"/>
</linearGradient>
</defs>
</svg>
