<svg width="24" height="24" viewBox="0 0 24 24" fill="none" xmlns="http://www.w3.org/2000/svg">
<rect width="24" height="24" rx="8" fill="url(#paint0_linear_1801_1797)"/>
<path fill-rule="evenodd" clip-rule="evenodd" d="M15.6984 15.5652C16.4274 16.6326 17.1294 17.6605 17.9997 16.5C19.4997 14.5 18.0377 6.99957 15.0002 7C14.7502 7.00004 14.5002 7.25 14.2502 7.49997C14.0002 7.74997 13.7502 7.99997 13.5002 7.99993C13.3309 7.99991 12.9896 8.00104 12.5928 8.00236C11.8177 8.00494 10.8309 8.00822 10.5002 8.00495C10.2508 8.00248 10.0014 7.75248 9.75203 7.50248C9.50141 7.25124 9.25079 7 9.00017 7C5.9626 7 4.49976 14.5 6.00004 16.5C6.87054 17.6605 7.57244 16.6326 8.30133 15.5652C8.82865 14.7929 9.37011 14 9.99976 14H13.9998C14.6294 14 15.171 14.7929 15.6984 15.5652ZM11.0002 10.5C11.0002 11.3284 10.3286 12 9.50017 12C8.67174 12 8.00017 11.3284 8.00017 10.5C8.00017 9.67157 8.67174 9 9.50017 9C10.3286 9 11.0002 9.67157 11.0002 10.5ZM15.0002 9.5C15.0002 9.77614 14.7763 10 14.5002 10C14.224 10 14.0002 9.77614 14.0002 9.5C14.0002 9.22386 14.224 9 14.5002 9C14.7763 9 15.0002 9.22386 15.0002 9.5ZM15.0002 11.5C15.0002 11.7761 14.7763 12 14.5002 12C14.224 12 14.0002 11.7761 14.0002 11.5C14.0002 11.2239 14.224 11 14.5002 11C14.7763 11 15.0002 11.2239 15.0002 11.5ZM16.0002 10.5C16.0002 10.7761 15.7763 11 15.5002 11C15.224 11 15.0002 10.7761 15.0002 10.5C15.0002 10.2239 15.224 10 15.5002 10C15.7763 10 16.0002 10.2239 16.0002 10.5ZM14.0002 10.5C14.0002 10.7761 13.7763 11 13.5002 11C13.224 11 13.0002 10.7761 13.0002 10.5C13.0002 10.2239 13.224 10 13.5002 10C13.7763 10 14.0002 10.2239 14.0002 10.5Z" fill="white"/>
<defs>
<linearGradient id="paint0_linear_1801_1797" x1="24" y1="0" x2="0" y2="24" gradientUnits="userSpaceOnUse">
<stop stop-color="#00FFFF"/>
<stop offset="1" stop-color="#0075FF"/>
</linearGradient>
</defs>
</svg>
