<svg width="22" height="22" viewBox="0 0 22 22" fill="none" xmlns="http://www.w3.org/2000/svg">
<path d="M6.41659 7.33325C6.41659 6.82699 6.82699 6.41659 7.33325 6.41659L10.0833 6.41659C10.5895 6.41659 10.9999 6.00618 10.9999 5.49992C10.9999 4.99366 10.5895 4.58325 10.0833 4.58325L7.33325 4.58325C5.81447 4.58325 4.58325 5.81447 4.58325 7.33325L4.58325 14.6666C4.58325 16.1854 5.81447 17.4166 7.33325 17.4166L14.6666 17.4166C16.1854 17.4166 17.4166 16.1854 17.4166 14.6666L17.4166 11.9166C17.4166 11.4103 17.0062 10.9999 16.4999 10.9999C15.9937 10.9999 15.5833 11.4103 15.5833 11.9166L15.5833 14.6666C15.5833 15.1728 15.1728 15.5833 14.6666 15.5833L7.33325 15.5833C6.82699 15.5833 6.41659 15.1728 6.41659 14.6666L6.41659 7.33325Z" fill="#7561FA"/>
<path d="M17.15 4.85368C17.3239 5.02855 17.4159 5.25059 17.4166 5.49717L17.4166 5.49992V9.16658C17.4166 9.67285 17.0062 10.0833 16.4999 10.0833C15.9937 10.0833 15.5833 9.67285 15.5833 9.16658L15.5833 7.71295L11.6481 11.6481C11.2901 12.0061 10.7097 12.0061 10.3517 11.6481C9.99376 11.2901 9.99376 10.7097 10.3517 10.3517L14.2869 6.41659H12.8333C12.327 6.41659 11.9166 6.00618 11.9166 5.49992C11.9166 4.99366 12.327 4.58325 12.8333 4.58325L16.4998 4.58325C16.7519 4.58325 16.9804 4.68505 17.1462 4.8498L17.15 4.85368Z" fill="#7561FA"/>
</svg>
