<svg width="22" height="22" viewBox="0 0 22 22" fill="none" xmlns="http://www.w3.org/2000/svg">
    <path d="M5.729 4.35409C4.96964 4.35409 4.35404 4.96969 4.35404 5.72909L4.35404 16.2708C4.35404 17.0301 4.96964 17.6458 5.729 17.6458L16.2704 17.6458C17.0298 17.6458 17.6454 17.0301 17.6454 16.2708V12.6041C17.6454 12.0978 18.0558 11.6874 18.5621 11.6874C19.0682 11.6874 19.4787 12.0978 19.4787 12.6041V16.2708C19.4787 18.0427 18.0423 19.4791 16.2704 19.4791L5.729 19.4791C3.95713 19.4791 2.52075 18.0427 2.52075 16.2708L2.52075 5.72909C2.52075 3.95717 3.95714 2.52075 5.729 2.52075L9.39557 2.52075C9.90184 2.52075 10.3122 2.93116 10.3122 3.43742C10.3122 3.94368 9.90184 4.35409 9.39557 4.35409L5.729 4.35409ZM11.6872 3.43742C11.6872 2.93116 12.0976 2.52075 12.6038 2.52075L18.5624 2.52075C19.0687 2.52075 19.4791 2.93116 19.4791 3.43742L19.4791 9.39575C19.4791 9.90203 19.0687 10.3124 18.5624 10.3124C18.0562 10.3124 17.6458 9.90203 17.6458 9.39575V5.65048L13.252 10.0439C12.894 10.4019 12.3136 10.4019 11.9556 10.0439C11.5977 9.68588 11.5977 9.1055 11.9557 8.74754L16.3495 4.35409L12.6038 4.35409C12.0976 4.35409 11.6872 3.94368 11.6872 3.43742Z" fill="#FF8700"/>
</svg>