<svg width="24" height="24" viewBox="0 0 24 24" fill="none" xmlns="http://www.w3.org/2000/svg">
<rect width="24" height="24" rx="8" fill="url(#paint0_linear_456_4538)"/>
<path d="M13.2983 10.3074L13.1871 9.39941C12.8851 9.32587 12.5841 9.34388 12.284 9.45344L11.9768 8.92128L11.5194 9.18536L11.8237 9.7124C11.3162 10.1337 11.4503 10.8112 11.7296 11.295C12.0767 11.8961 12.5931 12.1283 13.3226 11.9752C13.64 11.9057 13.7903 11.9087 13.8927 12.0861C14.0191 12.3052 13.9297 12.44 13.6691 12.5904C13.4399 12.7228 13.1666 12.7464 12.8493 12.6612L12.9605 13.5693C13.3293 13.7111 13.6904 13.7073 14.0438 13.5578L14.3466 14.0823L14.804 13.8182L14.4924 13.2784C14.9899 12.8306 14.8728 12.1842 14.5853 11.6863C14.2338 11.0775 13.6292 10.879 12.9489 11.0208C12.7533 11.0611 12.5361 11.0924 12.4222 10.8951C12.3163 10.7117 12.3896 10.566 12.5537 10.4712C12.7765 10.3426 13.0247 10.288 13.2983 10.3074Z" fill="white"/>
<path fill-rule="evenodd" clip-rule="evenodd" d="M15.8537 16.232C18.0283 14.9765 16.8924 11.4256 15.9927 9.86733C15.093 8.30907 12.5858 5.54986 10.4112 6.80538C8.23659 8.06089 9.37253 11.6118 10.2722 13.1701C11.1718 14.7283 13.6791 17.4875 15.8537 16.232ZM15.3888 10.216C16.677 12.4472 16.704 14.8433 15.449 15.5679C14.194 16.2924 12.1324 15.071 10.8442 12.8398C9.55599 10.6086 9.52905 8.21246 10.784 7.48791C12.039 6.76336 14.1006 7.98475 15.3888 10.216Z" fill="white"/>
<path fill-rule="evenodd" clip-rule="evenodd" d="M15.1057 18.4594C11.8651 20.3304 8.52522 17.7039 6.99873 15.06C5.47225 12.416 4.8676 8.21041 8.10819 6.33946L9.63371 5.45871C12.6811 3.6993 16.0207 6.68656 17.391 9.05998C18.7845 11.4734 19.6903 15.7683 16.656 17.5672C16.1437 17.8711 15.6216 18.1615 15.1057 18.4594ZM16.2424 16.9053L16.2338 16.9103C14.2679 18.036 11.2881 16.5444 9.57301 13.5737C7.85542 10.5988 8.05664 7.26701 10.0225 6.13204C11.9883 4.99707 14.9743 6.48868 16.6919 9.46365C18.4095 12.4386 18.2083 15.7703 16.2424 16.9053Z" fill="white"/>
<defs>
<linearGradient id="paint0_linear_456_4538" x1="24" y1="0" x2="0" y2="24" gradientUnits="userSpaceOnUse">
<stop stop-color="#FA00FF"/>
<stop offset="1" stop-color="#FF000F"/>
</linearGradient>
</defs>
</svg>
