<svg width="22" height="22" viewBox="0 0 22 22" fill="none" xmlns="http://www.w3.org/2000/svg">
    <path d="M12.75 3C13.9409 3 14.9156 3.92516 14.9948 5.09595L14.9998 6.76711C13.5854 6.56359 12.6875 7.99223 13.182 9.249L11.6565 9.2492C9 9.2492 9.5 12.7394 11.4903 12.7394L13.171 12.749C12.5653 13.9532 13.692 15.424 15 15.2226V16.75C15 17.9409 14.0748 18.9156 12.904 18.9948L5.25 19C4.05914 19 3.08436 18.0748 3.00519 16.904L3 5.25C3 4.05914 3.92516 3.08436 5.09595 3.00519L12.75 3ZM15.1954 7.89249L17.6496 10.3325C18 10.6829 18 11.3095 17.6493 11.6602L15.2795 14.0274C14.5 14.8069 13.5 13.6856 14.2188 12.9668L15.44 11.7454L11.5671 11.7386C10.5 11.7386 10.5 10.2523 11.5673 10.2523L15.44 10.2454L14.1462 8.94165C13.5 8.29545 14.5 7.19709 15.1954 7.89249Z" fill="#FF8700"/>
</svg>