<svg width="20" height="20" viewBox="0 0 20 20" fill="none" xmlns="http://www.w3.org/2000/svg">
<path fill-rule="evenodd" clip-rule="evenodd" d="M9.14375 2.33437C9.17575 2.14157 9.34386 2 9.53906 2H10.4609C10.6569 2 10.8234 2.14157 10.8562 2.33437L11.0828 3.69844C11.4727 3.76546 11.8498 3.86861 12.2125 4.00312L13.0922 2.93437C13.2162 2.78397 13.432 2.74459 13.6016 2.84219L14.3984 3.30313C14.5672 3.40073 14.6422 3.60586 14.5734 3.78906L14.0891 5.08281C14.3894 5.33312 14.6669 5.61059 14.9172 5.91094L16.2109 5.42656C16.3933 5.35776 16.5993 5.43196 16.6969 5.60156L17.1578 6.39844C17.2554 6.56804 17.2168 6.78381 17.0656 6.90781L15.9969 7.78906C16.1311 8.15134 16.2346 8.52779 16.3016 8.91719L17.6656 9.14375C17.8584 9.17575 18 9.34386 18 9.53906V10.4609C18 10.6569 17.8584 10.8234 17.6656 10.8562L16.3016 11.0828C16.2345 11.4727 16.1314 11.8498 15.9969 12.2125L17.0656 13.0922C17.216 13.2162 17.2554 13.432 17.1578 13.6016L16.6969 14.3984C16.5993 14.5672 16.3941 14.6422 16.2109 14.5734L14.9172 14.0891C14.6669 14.3894 14.3894 14.6669 14.0891 14.9172L14.5734 16.2109C14.6422 16.3933 14.568 16.5993 14.3984 16.6969L13.6016 17.1578C13.432 17.2554 13.2162 17.2168 13.0922 17.0656L12.2109 15.9969C11.8487 16.1311 11.4722 16.2346 11.0828 16.3016L10.8562 17.6656C10.8242 17.8584 10.6561 18 10.4609 18H9.53906C9.34306 18 9.17655 17.8584 9.14375 17.6656L8.91719 16.3016C8.5273 16.2345 8.1502 16.1314 7.7875 15.9969L6.90781 17.0656C6.78381 17.216 6.56804 17.2554 6.39844 17.1578L5.60156 16.6969C5.43276 16.5993 5.35776 16.3941 5.42656 16.2109L5.91094 14.9172C5.61059 14.6669 5.33312 14.3894 5.08281 14.0891L3.78906 14.5734C3.60666 14.6422 3.40073 14.568 3.30313 14.3984L2.84219 13.6016C2.74459 13.432 2.78317 13.2162 2.93437 13.0922L4.00312 12.2109C3.86886 11.8487 3.76537 11.4722 3.69844 11.0828L2.33437 10.8562C2.14157 10.8242 2 10.6561 2 10.4609V9.53906C2 9.34306 2.14157 9.17655 2.33437 9.14375L3.69844 8.91719C3.76537 8.52779 3.86886 8.15134 4.00312 7.78906L2.93437 6.90781C2.78317 6.78381 2.74379 6.56804 2.84219 6.39844L3.30313 5.60156C3.40073 5.43196 3.60666 5.35776 3.78906 5.42656L5.08281 5.91094C5.33312 5.61059 5.61059 5.33312 5.91094 5.08281L5.42656 3.78906C5.35776 3.60666 5.43196 3.40073 5.60156 3.30313L6.39844 2.84219C6.56804 2.74379 6.78381 2.78317 6.90781 2.93437L7.78906 4.00312C8.15134 3.86886 8.52779 3.76537 8.91719 3.69844L9.14375 2.33437ZM9.2 7.73906V5.27188C6.92429 5.65104 5.2 7.61291 5.2 10C5.2 10.5896 5.31058 11.1511 5.50312 11.6719L7.64062 10.4391C7.61364 10.2943 7.60004 10.1473 7.6 10C7.60037 9.504 7.75441 9.0203 8.04093 8.61543C8.32745 8.21055 8.73237 7.9044 9.2 7.73906ZM14.8 10C14.8 7.61291 13.0757 5.65104 10.8 5.27188V7.74062C11.2674 7.90587 11.6721 8.21179 11.9586 8.61635C12.2451 9.02091 12.3993 9.50427 12.4 10C12.3993 10.1468 12.3852 10.2933 12.3578 10.4375L14.4953 11.6734C14.6883 11.1521 14.8 10.5903 14.8 10ZM13.7031 13.0609L11.5578 11.8219C11.1239 12.1939 10.5715 12.3989 10 12.4C9.42812 12.3997 8.87512 12.1953 8.44063 11.8234L6.29688 13.0609C7.17569 14.1248 8.5051 14.8 10 14.8C11.4949 14.8 12.8243 14.1248 13.7031 13.0609ZM10 10.6154C10.3399 10.6154 10.6154 10.3398 10.6154 9.99998C10.6154 9.66011 10.3399 9.38459 10 9.38459C9.66017 9.38459 9.38465 9.66011 9.38465 9.99998C9.38465 10.3398 9.66017 10.6154 10 10.6154Z" fill="black"/>
</svg>
