<svg width="40" height="40" viewBox="0 0 40 40" fill="none" xmlns="http://www.w3.org/2000/svg">
<g filter="url(#filter0_d_456_4678)">
<rect x="8" y="4" width="24" height="24" rx="8" fill="url(#paint0_linear_456_4678)" shape-rendering="crispEdges"/>
<path fill-rule="evenodd" clip-rule="evenodd" d="M19.1438 8.33437C19.1758 8.14157 19.3439 8 19.5391 8H20.4609C20.6569 8 20.8234 8.14157 20.8562 8.33437L21.0828 9.69844C21.4727 9.76546 21.8498 9.86861 22.2125 10.0031L23.0922 8.93437C23.2162 8.78397 23.432 8.74459 23.6016 8.84219L24.3984 9.30313C24.5672 9.40073 24.6422 9.60586 24.5734 9.78906L24.0891 11.0828C24.3894 11.3331 24.6669 11.6106 24.9172 11.9109L26.2109 11.4266C26.3933 11.3578 26.5993 11.432 26.6969 11.6016L27.1578 12.3984C27.2554 12.568 27.2168 12.7838 27.0656 12.9078L25.9969 13.7891C26.1311 14.1513 26.2346 14.5278 26.3016 14.9172L27.6656 15.1438C27.8584 15.1758 28 15.3439 28 15.5391V16.4609C28 16.6569 27.8584 16.8234 27.6656 16.8562L26.3016 17.0828C26.2345 17.4727 26.1314 17.8498 25.9969 18.2125L27.0656 19.0922C27.216 19.2162 27.2554 19.432 27.1578 19.6016L26.6969 20.3984C26.5993 20.5672 26.3941 20.6422 26.2109 20.5734L24.9172 20.0891C24.6669 20.3894 24.3894 20.6669 24.0891 20.9172L24.5734 22.2109C24.6422 22.3933 24.568 22.5993 24.3984 22.6969L23.6016 23.1578C23.432 23.2554 23.2162 23.2168 23.0922 23.0656L22.2109 21.9969C21.8487 22.1311 21.4722 22.2346 21.0828 22.3016L20.8562 23.6656C20.8242 23.8584 20.6561 24 20.4609 24H19.5391C19.3431 24 19.1766 23.8584 19.1438 23.6656L18.9172 22.3016C18.5273 22.2345 18.1502 22.1314 17.7875 21.9969L16.9078 23.0656C16.7838 23.216 16.568 23.2554 16.3984 23.1578L15.6016 22.6969C15.4328 22.5993 15.3578 22.3941 15.4266 22.2109L15.9109 20.9172C15.6106 20.6669 15.3331 20.3894 15.0828 20.0891L13.7891 20.5734C13.6067 20.6422 13.4007 20.568 13.3031 20.3984L12.8422 19.6016C12.7446 19.432 12.7832 19.2162 12.9344 19.0922L14.0031 18.2109C13.8689 17.8487 13.7654 17.4722 13.6984 17.0828L12.3344 16.8562C12.1416 16.8242 12 16.6561 12 16.4609V15.5391C12 15.3431 12.1416 15.1766 12.3344 15.1438L13.6984 14.9172C13.7654 14.5278 13.8689 14.1513 14.0031 13.7891L12.9344 12.9078C12.7832 12.7838 12.7438 12.568 12.8422 12.3984L13.3031 11.6016C13.4007 11.432 13.6067 11.3578 13.7891 11.4266L15.0828 11.9109C15.3331 11.6106 15.6106 11.3331 15.9109 11.0828L15.4266 9.78906C15.3578 9.60666 15.432 9.40073 15.6016 9.30313L16.3984 8.84219C16.568 8.74379 16.7838 8.78317 16.9078 8.93437L17.7891 10.0031C18.1513 9.86886 18.5278 9.76537 18.9172 9.69844L19.1438 8.33437ZM19.2 13.7391V11.2719C16.9243 11.651 15.2 13.6129 15.2 16C15.2 16.5896 15.3106 17.1511 15.5031 17.6719L17.6406 16.4391C17.6136 16.2943 17.6 16.1473 17.6 16C17.6004 15.504 17.7544 15.0203 18.0409 14.6154C18.3274 14.2106 18.7324 13.9044 19.2 13.7391ZM24.8 16C24.8 13.6129 23.0757 11.651 20.8 11.2719V13.7406C21.2674 13.9059 21.6721 14.2118 21.9586 14.6164C22.2451 15.0209 22.3993 15.5043 22.4 16C22.3993 16.1468 22.3852 16.2933 22.3578 16.4375L24.4953 17.6734C24.6883 17.1521 24.8 16.5903 24.8 16ZM23.7031 19.0609L21.5578 17.8219C21.1239 18.1939 20.5715 18.3989 20 18.4C19.4281 18.3997 18.8751 18.1953 18.4406 17.8234L16.2969 19.0609C17.1757 20.1248 18.5051 20.8 20 20.8C21.4949 20.8 22.8243 20.1248 23.7031 19.0609ZM20 16.6154C20.3399 16.6154 20.6154 16.3398 20.6154 16C20.6154 15.6601 20.3399 15.3846 20 15.3846C19.6602 15.3846 19.3847 15.6601 19.3847 16C19.3847 16.3398 19.6602 16.6154 20 16.6154Z" fill="black"/>
</g>
<defs>
<filter id="filter0_d_456_4678" x="0" y="0" width="40" height="40" filterUnits="userSpaceOnUse" color-interpolation-filters="sRGB">
<feFlood flood-opacity="0" result="BackgroundImageFix"/>
<feColorMatrix in="SourceAlpha" type="matrix" values="0 0 0 0 0 0 0 0 0 0 0 0 0 0 0 0 0 0 127 0" result="hardAlpha"/>
<feOffset dy="4"/>
<feGaussianBlur stdDeviation="4"/>
<feComposite in2="hardAlpha" operator="out"/>
<feColorMatrix type="matrix" values="0 0 0 0 0.483333 0 0 0 0 0.166667 0 0 0 0 1 0 0 0 0.05 0"/>
<feBlend mode="normal" in2="BackgroundImageFix" result="effect1_dropShadow_456_4678"/>
<feBlend mode="normal" in="SourceGraphic" in2="effect1_dropShadow_456_4678" result="shape"/>
</filter>
<linearGradient id="paint0_linear_456_4678" x1="32" y1="4" x2="8" y2="28" gradientUnits="userSpaceOnUse">
<stop stop-color="white"/>
<stop offset="1" stop-color="#EDEDED"/>
</linearGradient>
</defs>
</svg>
