<svg width="24" height="24" viewBox="0 0 24 24" fill="none" xmlns="http://www.w3.org/2000/svg">
<rect width="24" height="24" rx="8" fill="url(#paint0_linear_456_4678)"/>
<path fill-rule="evenodd" clip-rule="evenodd" d="M11.1438 4.33437C11.1758 4.14157 11.3439 4 11.5391 4H12.4609C12.6569 4 12.8234 4.14157 12.8562 4.33437L13.0828 5.69844C13.4727 5.76546 13.8498 5.86861 14.2125 6.00312L15.0922 4.93437C15.2162 4.78397 15.432 4.74459 15.6016 4.84219L16.3984 5.30313C16.5672 5.40073 16.6422 5.60586 16.5734 5.78906L16.0891 7.08281C16.3894 7.33312 16.6669 7.61059 16.9172 7.91094L18.2109 7.42656C18.3933 7.35776 18.5993 7.43196 18.6969 7.60156L19.1578 8.39844C19.2554 8.56804 19.2168 8.78381 19.0656 8.90781L17.9969 9.78906C18.1311 10.1513 18.2346 10.5278 18.3016 10.9172L19.6656 11.1438C19.8584 11.1758 20 11.3439 20 11.5391V12.4609C20 12.6569 19.8584 12.8234 19.6656 12.8562L18.3016 13.0828C18.2345 13.4727 18.1314 13.8498 17.9969 14.2125L19.0656 15.0922C19.216 15.2162 19.2554 15.432 19.1578 15.6016L18.6969 16.3984C18.5993 16.5672 18.3941 16.6422 18.2109 16.5734L16.9172 16.0891C16.6669 16.3894 16.3894 16.6669 16.0891 16.9172L16.5734 18.2109C16.6422 18.3933 16.568 18.5993 16.3984 18.6969L15.6016 19.1578C15.432 19.2554 15.2162 19.2168 15.0922 19.0656L14.2109 17.9969C13.8487 18.1311 13.4722 18.2346 13.0828 18.3016L12.8562 19.6656C12.8242 19.8584 12.6561 20 12.4609 20H11.5391C11.3431 20 11.1766 19.8584 11.1438 19.6656L10.9172 18.3016C10.5273 18.2345 10.1502 18.1314 9.7875 17.9969L8.90781 19.0656C8.78381 19.216 8.56804 19.2554 8.39844 19.1578L7.60156 18.6969C7.43276 18.5993 7.35776 18.3941 7.42656 18.2109L7.91094 16.9172C7.61059 16.6669 7.33312 16.3894 7.08281 16.0891L5.78906 16.5734C5.60666 16.6422 5.40073 16.568 5.30313 16.3984L4.84219 15.6016C4.74459 15.432 4.78317 15.2162 4.93437 15.0922L6.00312 14.2109C5.86886 13.8487 5.76537 13.4722 5.69844 13.0828L4.33437 12.8562C4.14157 12.8242 4 12.6561 4 12.4609V11.5391C4 11.3431 4.14157 11.1766 4.33437 11.1438L5.69844 10.9172C5.76537 10.5278 5.86886 10.1513 6.00312 9.78906L4.93437 8.90781C4.78317 8.78381 4.74379 8.56804 4.84219 8.39844L5.30313 7.60156C5.40073 7.43196 5.60666 7.35776 5.78906 7.42656L7.08281 7.91094C7.33312 7.61059 7.61059 7.33312 7.91094 7.08281L7.42656 5.78906C7.35776 5.60666 7.43196 5.40073 7.60156 5.30313L8.39844 4.84219C8.56804 4.74379 8.78381 4.78317 8.90781 4.93437L9.78906 6.00312C10.1513 5.86886 10.5278 5.76537 10.9172 5.69844L11.1438 4.33437ZM11.2 9.73906V7.27188C8.92429 7.65104 7.2 9.61291 7.2 12C7.2 12.5896 7.31058 13.1511 7.50312 13.6719L9.64062 12.4391C9.61364 12.2943 9.60004 12.1473 9.6 12C9.60037 11.504 9.75441 11.0203 10.0409 10.6154C10.3274 10.2106 10.7324 9.9044 11.2 9.73906ZM16.8 12C16.8 9.61291 15.0757 7.65104 12.8 7.27188V9.74062C13.2674 9.90587 13.6721 10.2118 13.9586 10.6164C14.2451 11.0209 14.3993 11.5043 14.4 12C14.3993 12.1468 14.3852 12.2933 14.3578 12.4375L16.4953 13.6734C16.6883 13.1521 16.8 12.5903 16.8 12ZM15.7031 15.0609L13.5578 13.8219C13.1239 14.1939 12.5715 14.3989 12 14.4C11.4281 14.3997 10.8751 14.1953 10.4406 13.8234L8.29688 15.0609C9.17569 16.1248 10.5051 16.8 12 16.8C13.4949 16.8 14.8243 16.1248 15.7031 15.0609ZM12 12.6154C12.3399 12.6154 12.6154 12.3398 12.6154 12C12.6154 11.6601 12.3399 11.3846 12 11.3846C11.6602 11.3846 11.3847 11.6601 11.3847 12C11.3847 12.3398 11.6602 12.6154 12 12.6154Z" fill="black"/>
<defs>
<linearGradient id="paint0_linear_456_4678" x1="24" y1="0" x2="0" y2="24" gradientUnits="userSpaceOnUse">
<stop stop-color="white"/>
<stop offset="1" stop-color="#EDEDED"/>
</linearGradient>
</defs>
</svg>
