<svg width="24" height="24" viewBox="0 0 24 24" fill="none" xmlns="http://www.w3.org/2000/svg">
<rect width="24" height="24" rx="8" fill="url(#paint0_linear_1801_1790)"/>
<path fill-rule="evenodd" clip-rule="evenodd" d="M6.99873 15.06C8.52522 17.7039 11.8651 20.3304 15.1057 18.4594C15.2943 18.3505 15.4838 18.2426 15.6733 18.1346C16.0021 17.9473 16.331 17.76 16.656 17.5672C19.6903 15.7683 18.7845 11.4734 17.391 9.05998C16.0207 6.68656 12.6811 3.6993 9.63371 5.45871L8.10819 6.33946C4.8676 8.21041 5.47225 12.416 6.99873 15.06ZM15.3888 10.216C16.677 12.4472 16.704 14.8433 15.449 15.5679C14.194 16.2924 12.1324 15.071 10.8442 12.8398C9.55599 10.6086 9.52905 8.21246 10.784 7.48791C12.039 6.76336 14.1006 7.98475 15.3888 10.216Z" fill="white"/>
<ellipse cx="13.1211" cy="11.5237" rx="1.50832" ry="2.91933" transform="rotate(-30 13.1211 11.5237)" fill="white"/>
<defs>
<linearGradient id="paint0_linear_1801_1790" x1="24" y1="0" x2="0" y2="24" gradientUnits="userSpaceOnUse">
<stop stop-color="#F3FF69"/>
<stop offset="1" stop-color="#FFB800"/>
</linearGradient>
</defs>
</svg>
