<svg width="24" height="24" viewBox="0 0 24 24" fill="none" xmlns="http://www.w3.org/2000/svg">
<rect width="24" height="24" rx="8" fill="url(#paint0_linear_456_4493)"/>
<path d="M12 11.5833C14.4239 11.5833 17 10.7801 17 9.29167C17 7.80323 14.4239 7 12 7C9.57614 7 7 7.80323 7 9.29167C7 10.7801 9.57614 11.5833 12 11.5833Z" fill="white"/>
<path d="M16.5455 13.875C16.2945 13.875 16.0909 14.0803 16.0909 14.3333C16.0909 14.8939 14.4973 15.7083 12 15.7083C9.50273 15.7083 7.90909 14.8939 7.90909 14.3333C7.90909 14.0803 7.70545 13.875 7.45455 13.875C7.20364 13.875 7 14.0803 7 14.3333V15.7083C7 17.1968 9.57614 18 12 18C14.4239 18 17 17.1968 17 15.7083V14.3333C17 14.0803 16.7964 13.875 16.5455 13.875Z" fill="white"/>
<path d="M16.5455 10.6667C16.2945 10.6667 16.0909 10.872 16.0909 11.125C16.0909 11.6855 14.4973 12.5 12 12.5C9.50273 12.5 7.90909 11.6855 7.90909 11.125C7.90909 10.872 7.70545 10.6667 7.45455 10.6667C7.20364 10.6667 7 10.872 7 11.125V12.5C7 13.9884 9.57614 14.7917 12 14.7917C14.4239 14.7917 17 13.9884 17 12.5V11.125C17 10.872 16.7964 10.6667 16.5455 10.6667Z" fill="white"/>
<defs>
<linearGradient id="paint0_linear_456_4493" x1="24" y1="0" x2="0" y2="24" gradientUnits="userSpaceOnUse">
<stop stop-color="#00FFB2"/>
<stop offset="1" stop-color="#0094FF"/>
</linearGradient>
</defs>
</svg>
