<svg width="24" height="24" viewBox="0 0 24 24" fill="none" xmlns="http://www.w3.org/2000/svg">
<rect width="24" height="24" rx="8" fill="url(#paint0_linear_456_3790)"/>
<g clip-path="url(#clip0_456_3790)">
<path fill-rule="evenodd" clip-rule="evenodd" d="M9.53723 4.463L9.53723 5.71918L12.0496 5.71918L8.90914 8.85963L10.1653 10.1158L13.3058 6.97536L13.3058 9.48772H14.562L14.7644 5.06575C14.7683 4.84849 14.6856 4.64149 14.5345 4.49045C14.3835 4.33941 14.1766 4.25674 13.9592 4.26054L9.53723 4.463ZM7.65281 10.1158L6.39663 11.372L7.65281 12.6282L8.90899 11.372L7.65281 10.1158ZM16.419 13.9119L17.6751 12.6557L16.419 11.3995L15.1628 12.6557L16.419 13.9119ZM3.88458 13.8844L5.14076 12.6282L6.39694 13.8844L5.14076 15.1406L3.88458 13.8844ZM18.931 11.3995L20.1872 10.1433L18.931 8.88711L17.6748 10.1433L18.931 11.3995ZM14.5345 18.3085L14.5345 19.5646L10.1126 19.7671C9.89521 19.7709 9.68829 19.6882 9.53726 19.5372C9.38621 19.3861 9.30345 19.1791 9.30736 18.9619L9.50981 14.5399L10.766 14.5399L10.766 17.0523L13.9064 13.9118L15.1626 15.168L12.0222 18.3085L14.5345 18.3085Z" fill="white"/>
</g>
<defs>
<linearGradient id="paint0_linear_456_3790" x1="24" y1="0" x2="0" y2="24" gradientUnits="userSpaceOnUse">
<stop stop-color="#FF0000"/>
<stop offset="1" stop-color="#FFE600"/>
</linearGradient>
<clipPath id="clip0_456_3790">
<rect width="20" height="20" fill="white" transform="translate(2 2)"/>
</clipPath>
</defs>
</svg>
