<svg width="24" height="24" viewBox="0 0 24 24" fill="none" xmlns="http://www.w3.org/2000/svg">
<rect width="24" height="24" rx="8" fill="url(#paint0_linear_456_4716)"/>
<path fill-rule="evenodd" clip-rule="evenodd" d="M4.92969 8.4413L5.81794 9.32955L7.59445 7.55304L7.59445 11.9943L9.37096 11.9943L9.37096 7.55304L11.1475 9.32955L12.0357 8.4413L9.05207 5.17133C8.90121 5.01495 8.69631 4.9271 8.4827 4.9271C8.26911 4.9271 8.06434 5.01495 7.91334 5.17133L4.92969 8.4413ZM7.59436 13.7709L7.59436 15.5474L9.37087 15.5474L9.37087 13.7709L7.59436 13.7709ZM16.4772 10.2565L16.4772 8.48003L14.7006 8.48003L14.7006 10.2565L16.4772 10.2565ZM7.5946 19.1003L7.5946 17.3238L9.37111 17.3238L9.37111 19.1003L7.5946 19.1003ZM16.4769 6.70372L16.4769 4.92721L14.7004 4.92721L14.7004 6.70372L16.4769 6.70372ZM18.2535 14.6979L19.1418 15.5861L16.1581 18.8561C16.0071 19.0125 15.8024 19.1003 15.5888 19.1003C15.3752 19.1003 15.1703 19.0125 15.0194 18.8561L12.0358 15.5861L12.924 14.6979L14.7005 16.4744L14.7005 12.0331L16.477 12.0331L16.477 16.4744L18.2535 14.6979Z" fill="black"/>
<defs>
<linearGradient id="paint0_linear_456_4716" x1="24" y1="0" x2="0" y2="24" gradientUnits="userSpaceOnUse">
<stop stop-color="white"/>
<stop offset="1" stop-color="#EDEDED"/>
</linearGradient>
</defs>
</svg>
