<svg width="24" height="24" viewBox="0 0 24 24" fill="none" xmlns="http://www.w3.org/2000/svg">
    <rect width="24" height="24" rx="8" fill="url(#paint0_linear_1758_1189)"/>
    <path d="M13.5713 6.13578C13.0378 5.99284 12.7213 5.44451 12.8642 4.91104C13.0071 4.37757 13.5555 4.06099 14.0889 4.20393L16.821 4.93598C17.3545 5.07892 17.671 5.62726 17.5281 6.16073L16.796 8.89278C16.6531 9.42624 16.1048 9.74283 15.5713 9.59989C15.0378 9.45694 14.7213 8.90861 14.8642 8.37514L14.9714 7.97504L10.134 10.7679C9.65568 11.0441 9.04409 10.8802 8.76794 10.4019C8.4918 9.92362 8.65568 9.31203 9.13397 9.03588L13.9714 6.24299L13.5713 6.13578Z" fill="white"/>
    <path d="M10.4287 17.8642C10.9622 18.0072 11.2787 18.5555 11.1358 19.089C10.9929 19.6224 10.4445 19.939 9.91106 19.7961L7.17901 19.064C6.64554 18.9211 6.32896 18.3727 6.4719 17.8393L7.20395 15.1072C7.34689 14.5738 7.89523 14.2572 8.4287 14.4001C8.96216 14.5431 9.27875 15.0914 9.1358 15.6249L9.0286 16.025L13.866 13.2321C14.3443 12.9559 14.9559 13.1198 15.2321 13.5981C15.5082 14.0764 15.3443 14.688 14.866 14.9641L10.0286 17.757L10.4287 17.8642Z" fill="white"/>
    <defs>
        <linearGradient id="paint0_linear_1758_1189" x1="24" y1="0" x2="0" y2="24" gradientUnits="userSpaceOnUse">
            <stop stop-color="#FF8C4B"/>
            <stop offset="1" stop-color="#FF0000"/>
        </linearGradient>
    </defs>
</svg>