<svg width="24" height="24" viewBox="0 0 24 24" fill="none" xmlns="http://www.w3.org/2000/svg">
    <rect width="24" height="24" rx="8" fill="url(#paint0_linear_1801_4146)"/>
    <path d="M7.70711 7.70711C7.31658 8.09763 6.68342 8.09763 6.29289 7.70711C5.90237 7.31658 5.90237 6.68342 6.29289 6.29289L8.29289 4.29289C8.68342 3.90237 9.31658 3.90237 9.70711 4.29289L11.7071 6.29289C12.0976 6.68342 12.0976 7.31658 11.7071 7.70711C11.3166 8.09763 10.6834 8.09763 10.2929 7.70711L10 7.41421L10 13C10 13.5523 9.55228 14 9 14C8.44772 14 8 13.5523 8 13L8 7.41421L7.70711 7.70711Z" fill="black"/>
    <path d="M16.2929 16.2929C16.6834 15.9024 17.3166 15.9024 17.7071 16.2929C18.0976 16.6834 18.0976 17.3166 17.7071 17.7071L15.7071 19.7071C15.3166 20.0976 14.6834 20.0976 14.2929 19.7071L12.2929 17.7071C11.9024 17.3166 11.9024 16.6834 12.2929 16.2929C12.6834 15.9024 13.3166 15.9024 13.7071 16.2929L14 16.5858L14 11C14 10.4477 14.4477 10 15 10C15.5523 10 16 10.4477 16 11L16 16.5858L16.2929 16.2929Z" fill="black"/>
    <defs>
        <linearGradient id="paint0_linear_1801_4146" x1="11.7966" y1="-6.81147e-08" x2="11.7966" y2="24" gradientUnits="userSpaceOnUse">
            <stop stop-color="white"/>
            <stop offset="1" stop-color="#E8E8E8"/>
        </linearGradient>
    </defs>
</svg>