<svg width="20" height="20" viewBox="0 0 20 20" fill="none" xmlns="http://www.w3.org/2000/svg">
<path fill-rule="evenodd" clip-rule="evenodd" d="M2.92969 6.4413L3.81794 7.32955L5.59445 5.55304L5.59445 9.99431L7.37096 9.99431L7.37096 5.55304L9.14747 7.32955L10.0357 6.4413L7.05207 3.17133C6.90121 3.01495 6.69631 2.9271 6.4827 2.9271C6.26911 2.9271 6.06434 3.01495 5.91334 3.17133L2.92969 6.4413ZM5.59436 11.7709L5.59436 13.5474L7.37087 13.5474L7.37087 11.7709L5.59436 11.7709ZM14.4772 8.25654L14.4772 6.48003L12.7006 6.48003L12.7006 8.25654L14.4772 8.25654ZM5.5946 17.1003L5.5946 15.3238L7.37111 15.3238L7.37111 17.1003L5.5946 17.1003ZM14.4769 4.70372L14.4769 2.92721L12.7004 2.92721L12.7004 4.70372L14.4769 4.70372ZM16.2535 12.6979L17.1418 13.5861L14.1581 16.8561C14.0071 17.0125 13.8024 17.1003 13.5888 17.1003C13.3752 17.1003 13.1703 17.0125 13.0194 16.8561L10.0358 13.5861L10.924 12.6979L12.7005 14.4744L12.7005 10.0331L14.477 10.0331L14.477 14.4744L16.2535 12.6979Z" fill="black"/>
</svg>
