<svg width="24" height="24" viewBox="0 0 24 24" fill="none" xmlns="http://www.w3.org/2000/svg">
<rect width="24" height="24" rx="8" fill="url(#paint0_linear_456_4501)"/>
<path d="M9 12.5L12 15L18 7" stroke="white" stroke-width="2" stroke-linecap="round" stroke-linejoin="round"/>
<path fill-rule="evenodd" clip-rule="evenodd" d="M15.5162 7.05311C14.911 7 14.1566 7 13.2 7H10.8C8.53726 7 7.40589 7 6.70294 7.70294C6 8.40589 6 9.53726 6 11.8V14.2C6 16.4627 6 17.5941 6.70294 18.2971C7.40589 19 8.53726 19 10.8 19H13.2C15.4627 19 16.5941 19 17.2971 18.2971C18 17.5941 18 16.4627 18 14.2V11.8C18 11.2575 18 10.7801 17.9903 10.3579L16.8 11.8356V14.2C16.8 15.3653 16.7975 16.1185 16.7228 16.6736C16.6529 17.194 16.5399 17.3572 16.4485 17.4485C16.3572 17.5399 16.194 17.6529 15.6736 17.7228C15.1185 17.7975 14.3653 17.8 13.2 17.8H10.8C9.63471 17.8 8.88145 17.7975 8.32644 17.7228C7.80596 17.6529 7.64282 17.5399 7.55147 17.4485C7.46012 17.3572 7.34715 17.194 7.27717 16.6736C7.20255 16.1185 7.2 15.3653 7.2 14.2V11.8C7.2 10.6347 7.20255 9.88145 7.27717 9.32644C7.34715 8.80596 7.46012 8.64282 7.55147 8.55147C7.64282 8.46012 7.80596 8.34715 8.32644 8.27717C8.88145 8.20255 9.63471 8.2 10.8 8.2H13.2C13.7444 8.2 14.1989 8.20056 14.5853 8.20876L15.5162 7.05311Z" fill="white"/>
<defs>
<linearGradient id="paint0_linear_456_4501" x1="24" y1="0" x2="0" y2="24" gradientUnits="userSpaceOnUse">
<stop stop-color="#8000FF"/>
<stop offset="1" stop-color="#FA00FF"/>
</linearGradient>
</defs>
</svg>
