<svg width="22" height="22" viewBox="0 0 22 22" fill="none" xmlns="http://www.w3.org/2000/svg">
<path d="M3 4.77778V16.1111C3 17.7066 4.25845 19 5.81081 19H16.1892C17.7415 19 19 17.7066 19 16.1111V8.55556C19 7.18952 18.0774 6.04493 16.8378 5.74397V5C16.8378 3.89543 15.9666 3 14.8919 3H4.94595C3.94431 3 3.11943 3.77779 3.01187 4.77778H3ZM4.94595 5.66667C4.58771 5.66667 4.2973 5.36819 4.2973 5C4.2973 4.63181 4.58771 4.33333 4.94595 4.33333H14.8919C15.2501 4.33333 15.5405 4.63181 15.5405 5V5.66667H4.94595ZM14.4595 11.8889H16.1892C16.5474 11.8889 16.8378 12.1874 16.8378 12.5556C16.8378 12.9237 16.5474 13.2222 16.1892 13.2222H14.4595C14.1012 13.2222 13.8108 12.9237 13.8108 12.5556C13.8108 12.1874 14.1012 11.8889 14.4595 11.8889Z" fill="#FF8700"/>
</svg>
