<svg width="23" height="22" viewBox="0 0 23 22" fill="none" xmlns="http://www.w3.org/2000/svg">
    <path fill-rule="evenodd" clip-rule="evenodd" d="M2.5 7C2.5 5.34315 3.84315 4 5.5 4L14.5 4C16.1569 4 17.5 5.34315 17.5 7C18.6581 7.37679 19.5 8.65022 19.5 10L19.5 16C19.5 17.6569 18.2315 19 16.6667 19H5.33333C3.76853 19 2.5 17.6569 2.5 16L2.5 7ZM14.5 6C15.0523 6 15.5 6.44772 15.5 7C11.8333 7 8.16667 7 4.5 7C4.5 6.44772 4.94772 6 5.5 6L14.5 6ZM15.4999 14.2C15.4999 14.6418 15.9476 15 16.4999 15C17.0522 15 17.4999 14.6418 17.4999 14.2V11.8C17.4999 11.3582 17.0522 11 16.4999 11C15.9476 11 15.4999 11.3582 15.4999 11.8V14.2Z" fill="#7561FA"/>
</svg>