<svg width="24" height="24" viewBox="0 0 24 24" fill="none" xmlns="http://www.w3.org/2000/svg">
    <path d="M12.0002 9.24242C12.4875 9.24242 12.8826 9.6223 12.8826 10.0909L12.8826 13.4848C12.8826 13.9535 12.4875 14.3333 12.0002 14.3333C11.5129 14.3333 11.1179 13.9535 11.1179 13.4848L11.1179 10.0909C11.1179 9.6223 11.5129 9.24242 12.0002 9.24242Z" fill="white"/>
    <path d="M12.0002 15.1818C11.5129 15.1818 11.1179 15.5617 11.1179 16.0303C11.1179 16.4989 11.5129 16.8788 12.0002 16.8788C12.4875 16.8788 12.8826 16.4989 12.8826 16.0303C12.8826 15.5617 12.4875 15.1818 12.0002 15.1818Z" fill="white"/>
    <path fill-rule="evenodd" clip-rule="evenodd" d="M9.70758 6.27273C10.7264 4.57576 13.2736 4.57576 14.2924 6.27273L19.6414 15.1818C20.6603 16.8788 19.3867 19 17.349 19L6.65101 19C4.6133 19 3.33973 16.8788 4.35859 15.1818L9.70758 6.27273ZM12.7641 7.12121C12.4245 6.55555 11.5755 6.55555 11.2359 7.12121L5.88687 16.0303C5.54725 16.596 5.97177 17.303 6.65101 17.303L17.349 17.303C18.0282 17.303 18.4527 16.596 18.1131 16.0303L12.7641 7.12121Z" fill="white"/>
</svg>