<svg width="24" height="24" viewBox="0 0 26 24" fill="none" xmlns="http://www.w3.org/2000/svg">
    <path d="M14.54 11.82C14.5509 15.5199 11.47 18.6237 7.77003 18.64C4.0701 18.6237 0.989111 15.5199 1.00003 11.82C0.989111 8.12005 4.0701 5.01631 7.77003 5C11.47 5.01631 14.5509 8.12005 14.54 11.82ZM21.96 11.82C21.96 15.36 20.45 18.24 18.58 18.24C16.71 18.24 15.19 15.36 15.19 11.82C15.19 8.28 16.71 5.4 18.58 5.4C20.45 5.4 21.96 8.28 21.96 11.82ZM25 11.82C25 14.99 24.47 17.57 23.81 17.57C23.15 17.57 22.62 14.99 22.62 11.82C22.62 8.65 23.15 6.07 23.81 6.07C24.47 6.07 25 8.65 25 11.82Z" stroke="black"/>
</svg>