<svg width="24" height="24" viewBox="0 0 24 24" fill="none" xmlns="http://www.w3.org/2000/svg">
<path d="M13.54 11.82C13.5509 15.5199 10.47 18.6237 6.77003 18.64C3.0701 18.6237 -0.0108885 15.5199 2.96483e-05 11.82C-0.0108885 8.12005 3.0701 5.01631 6.77003 5C10.47 5.01631 13.5509 8.12005 13.54 11.82ZM20.96 11.82C20.96 15.36 19.45 18.24 17.58 18.24C15.71 18.24 14.19 15.36 14.19 11.82C14.19 8.28 15.71 5.4 17.58 5.4C19.45 5.4 20.96 8.28 20.96 11.82ZM24 11.82C24 14.99 23.47 17.57 22.81 17.57C22.15 17.57 21.62 14.99 21.62 11.82C21.62 8.65 22.15 6.07 22.81 6.07C23.47 6.07 24 8.65 24 11.82Z" fill="black"/>
</svg>
