<svg width="24" height="24" viewBox="0 0 24 24" fill="none" xmlns="http://www.w3.org/2000/svg">
<path d="M23.953 4.32351C23.0545 4.71911 22.1026 4.98024 21.128 5.09851C22.1541 4.48176 22.9224 3.51455 23.291 2.37551C22.34 2.93051 21.286 3.33451 20.164 3.55951C19.4238 2.76793 18.4429 2.24293 17.3736 2.06601C16.3044 1.88909 15.2067 2.07016 14.2509 2.5811C13.2952 3.09204 12.5349 3.90426 12.0881 4.89163C11.6412 5.879 11.533 6.98627 11.78 8.04151C7.69 7.84851 4.067 5.8835 1.64 2.91551C1.19879 3.66532 0.968664 4.52053 0.974 5.39051C0.974 7.10051 1.844 8.60351 3.162 9.48651C2.38086 9.46164 1.61697 9.25044 0.934 8.8705V8.93051C0.933557 10.0669 1.32627 11.1684 2.04551 12.0483C2.76474 12.9281 3.76621 13.532 4.88 13.7575C4.1583 13.9509 3.40241 13.9799 2.668 13.8425C2.98412 14.8205 3.59766 15.6754 4.42301 16.288C5.24837 16.9006 6.24435 17.2402 7.272 17.2595C5.53153 18.6255 3.38248 19.3668 1.17 19.3645C0.78 19.3645 0.391 19.3415 0 19.2975C2.25571 20.7418 4.87851 21.5085 7.557 21.5065C16.61 21.5065 21.555 14.0105 21.555 7.52151C21.555 7.31151 21.555 7.10151 21.54 6.89151C22.506 6.19637 23.3392 5.33332 24 4.34351L23.953 4.32351Z" fill="black"/>
</svg>
