<svg width="24" height="24" viewBox="0 0 26 24" fill="none" xmlns="http://www.w3.org/2000/svg">
    <path d="M24.953 4.32351C24.0545 4.71911 23.1026 4.98024 22.128 5.09851C23.1541 4.48176 23.9224 3.51455 24.291 2.37551C23.34 2.93051 22.286 3.33451 21.164 3.55951C20.4238 2.76793 19.4429 2.24293 18.3736 2.06601C17.3044 1.88909 16.2067 2.07016 15.2509 2.5811C14.2952 3.09204 13.5349 3.90426 13.0881 4.89163C12.6412 5.879 12.533 6.98627 12.78 8.04151C8.69 7.84851 5.067 5.8835 2.64 2.91551C2.19879 3.66532 1.96866 4.52053 1.974 5.39051C1.974 7.10051 2.844 8.60351 4.162 9.48651C3.38086 9.46164 2.61697 9.25044 1.934 8.8705V8.93051C1.93356 10.0669 2.32627 11.1684 3.04551 12.0483C3.76474 12.9281 4.76621 13.532 5.88 13.7575C5.1583 13.9509 4.40241 13.9799 3.668 13.8425C3.98412 14.8205 4.59766 15.6754 5.42301 16.288C6.24837 16.9006 7.24435 17.2402 8.272 17.2595C6.53153 18.6255 4.38248 19.3668 2.17 19.3645C1.78 19.3645 1.391 19.3415 1 19.2975C3.25571 20.7418 5.87851 21.5085 8.557 21.5065C17.61 21.5065 22.555 14.0105 22.555 7.52151C22.555 7.31151 22.555 7.10151 22.54 6.89151C23.506 6.19637 24.2922 5.31332 24.953 4.32351Z" stroke="black" stroke-miterlimit="10.4761" stroke-linejoin="round"/>
</svg>