<svg width="49" height="56" viewBox="0 0 49 56" fill="none" xmlns="http://www.w3.org/2000/svg">
<g filter="url(#filter0_dd_473_3169)">
<path d="M10.9211 10C10.9211 7.79089 12.712 6.00003 14.9211 6.00003H34.9211C37.1303 6.00003 38.9211 7.79089 38.9211 10C38.9211 12.2092 37.1303 14 34.9211 14H14.9211C12.712 14 10.9211 12.2092 10.9211 10Z" fill="url(#paint0_linear_473_3169)"/>
<path d="M10.9211 10C10.9211 7.79089 12.712 6.00003 14.9211 6.00003H34.9211C37.1303 6.00003 38.9211 7.79089 38.9211 10C38.9211 12.2092 37.1303 14 34.9211 14H14.9211C12.712 14 10.9211 12.2092 10.9211 10Z" fill="url(#paint1_linear_473_3169)"/>
<path d="M16.9904 41.266C15.0772 40.1615 14.4217 37.7151 15.5263 35.8019L31.5263 8.08911C32.6309 6.17594 35.0772 5.52044 36.9904 6.62501C38.9036 7.72958 39.5591 10.1759 38.4545 12.0891L22.4545 39.8019C21.3499 41.7151 18.9036 42.3706 16.9904 41.266Z" fill="url(#paint2_linear_473_3169)"/>
</g>
<defs>
<filter id="filter0_dd_473_3169" x="0" y="0" width="49" height="56" filterUnits="userSpaceOnUse" color-interpolation-filters="sRGB">
<feFlood flood-opacity="0" result="BackgroundImageFix"/>
<feColorMatrix in="SourceAlpha" type="matrix" values="0 0 0 0 0 0 0 0 0 0 0 0 0 0 0 0 0 0 127 0" result="hardAlpha"/>
<feOffset dy="4"/>
<feGaussianBlur stdDeviation="5"/>
<feComposite in2="hardAlpha" operator="out"/>
<feColorMatrix type="matrix" values="0 0 0 0 0 0 0 0 0 0 0 0 0 0 0 0 0 0 0.25 0"/>
<feBlend mode="normal" in2="BackgroundImageFix" result="effect1_dropShadow_473_3169"/>
<feColorMatrix in="SourceAlpha" type="matrix" values="0 0 0 0 0 0 0 0 0 0 0 0 0 0 0 0 0 0 127 0" result="hardAlpha"/>
<feOffset dy="2"/>
<feComposite in2="hardAlpha" operator="out"/>
<feColorMatrix type="matrix" values="0 0 0 0 1 0 0 0 0 1 0 0 0 0 1 0 0 0 1 0"/>
<feBlend mode="normal" in2="effect1_dropShadow_473_3169" result="effect2_dropShadow_473_3169"/>
<feBlend mode="normal" in="SourceGraphic" in2="effect2_dropShadow_473_3169" result="shape"/>
</filter>
<linearGradient id="paint0_linear_473_3169" x1="10.9211" y1="10" x2="38.9211" y2="10" gradientUnits="userSpaceOnUse">
<stop stop-color="#FF55BB"/>
<stop offset="0.947917" stop-color="#E444CB"/>
</linearGradient>
<linearGradient id="paint1_linear_473_3169" x1="39.0001" y1="14" x2="21.5001" y2="4.50003" gradientUnits="userSpaceOnUse">
<stop stop-color="#46003F"/>
<stop offset="1" stop-color="#6A0060" stop-opacity="0"/>
</linearGradient>
<linearGradient id="paint2_linear_473_3169" x1="39.9999" y1="9.5" x2="20.9999" y2="42.5" gradientUnits="userSpaceOnUse">
<stop stop-color="#FF75E9"/>
<stop offset="0.484375" stop-color="#AE00FF"/>
<stop offset="1" stop-color="#6825EB"/>
</linearGradient>
</defs>
</svg>
