<svg width="124" height="36" viewBox="0 0 124 36" fill="none" xmlns="http://www.w3.org/2000/svg">
    <path d="M38.7682 36C37.4357 36 36.1569 35.9016 34.9319 35.7049C33.7068 35.5082 32.5892 35.235 31.5791 34.8852C30.5904 34.5137 29.7307 34.1093 29 33.6721L31.9337 27.9672C32.7719 28.4481 33.6101 28.8525 34.4483 29.1803C35.308 29.4863 36.1569 29.7158 36.9951 29.8689C37.8548 30.0219 38.7038 30.0984 39.542 30.0984C40.2082 30.0984 40.7563 30.0437 41.1861 29.9344C41.6375 29.8251 41.9706 29.6721 42.1855 29.4754C42.4219 29.2568 42.5401 29.0164 42.5401 28.7541C42.5401 28.4044 42.3467 28.1202 41.9598 27.9016C41.573 27.6831 41.0572 27.4863 40.4124 27.3115C39.7891 27.1366 39.0906 26.9617 38.3169 26.7869C37.5647 26.5902 36.8017 26.3497 36.028 26.0656C35.2542 25.7596 34.545 25.377 33.9002 24.918C33.277 24.459 32.7719 23.8798 32.385 23.1803C31.9982 22.4809 31.8047 21.6284 31.8047 20.623C31.8047 18.8743 32.2561 17.3552 33.1588 16.0656C34.0829 14.776 35.3939 13.7814 37.0918 13.082C38.8112 12.3607 40.853 12 43.2171 12C44.8935 12 46.4517 12.1749 47.8917 12.5246C49.3532 12.8525 50.6105 13.3333 51.6636 13.9672L48.9233 19.6066C48.0207 19.0383 47.032 18.612 45.9574 18.3279C44.9043 18.0437 43.8297 17.9016 42.7336 17.9016C42.0028 17.9016 41.3903 17.9781 40.896 18.1311C40.4016 18.2623 40.0255 18.4481 39.7676 18.6885C39.5312 18.929 39.413 19.1803 39.413 19.4426C39.413 19.7923 39.6064 20.0874 39.9933 20.3279C40.3802 20.5464 40.896 20.7432 41.5407 20.918C42.1855 21.071 42.884 21.2459 43.6362 21.4426C44.41 21.6175 45.1729 21.847 45.9252 22.1311C46.6989 22.3934 47.4081 22.7541 48.0529 23.2131C48.6977 23.6503 49.2135 24.2186 49.6003 24.918C49.9872 25.5956 50.1806 26.4372 50.1806 27.4426C50.1806 29.1475 49.7185 30.6448 48.7944 31.9344C47.8702 33.2022 46.5484 34.1967 44.8291 34.918C43.1312 35.6393 41.1109 36 38.7682 36Z" fill="black"/>
    <path d="M60.7944 21.0492H70.8527L69.7566 26.623H59.6983L60.7944 21.0492ZM59.6015 29.6393H70.9172L69.7566 35.4754H50.9939L55.5073 12.5246H73.8509L72.6903 18.3607H61.826L59.6015 29.6393Z" fill="black"/>
    <path d="M79.4632 35.4754L74.434 12.5246H82.2357L86.2977 31.9672H81.333L93.1967 12.5246H100.998L86.9425 35.4754H79.4632Z" fill="black"/>
    <path d="M97.2421 35.4754L101.756 12.5246H108.01L116.488 26.4918H113.845L116.585 12.5246H124L119.487 35.4754H113.232L104.754 21.5082H107.397L104.657 35.4754H97.2421Z" fill="black"/>
    <path d="M0.921143 4C0.921143 1.79086 2.712 0 4.92114 0H24.9211C27.1303 0 28.9211 1.79086 28.9211 4C28.9211 6.20914 27.1303 8 24.9211 8H4.92114C2.712 8 0.921143 6.20914 0.921143 4Z" fill="url(#paint0_linear_534_902)"/>
    <path d="M6.99041 35.266C5.07724 34.1615 4.42174 31.7151 5.52631 29.8019L21.5263 2.08911C22.6309 0.175938 25.0772 -0.479563 26.9904 0.625006C28.9036 1.72958 29.5591 4.17594 28.4545 6.08911L12.4545 33.8019C11.3499 35.7151 8.90358 36.3706 6.99041 35.266Z" fill="url(#paint1_linear_534_902)"/>
    <path d="M1 4C1 1.79086 2.79086 0 5 0H25C27.2091 0 29 1.79086 29 4C29 6.20914 27.2091 8 25 8H5C2.79086 8 1 6.20914 1 4Z" fill="url(#paint2_linear_534_902)"/>
    <path d="M7.00056 35.4591C5.08749 34.3457 4.43203 31.8798 5.53654 29.9513L21.5356 2.01668C22.6402 0.0881984 25.0864 -0.57255 26.9994 0.540861C28.9125 1.65427 29.568 4.12021 28.4635 6.0487L12.4644 33.9833C11.3598 35.9118 8.91362 36.5726 7.00056 35.4591Z" fill="url(#paint3_linear_534_902)"/>
    <path d="M7.00056 35.4591C5.08749 34.3457 4.43203 31.8798 5.53654 29.9513L21.5356 2.01668C22.6402 0.0881984 25.0864 -0.57255 26.9994 0.540861C28.9125 1.65427 29.568 4.12021 28.4635 6.0487L12.4644 33.9833C11.3598 35.9118 8.91362 36.5726 7.00056 35.4591Z" fill="url(#paint4_linear_534_902)"/>
    <defs>
        <linearGradient id="paint0_linear_534_902" x1="0.921143" y1="4" x2="28.9211" y2="4" gradientUnits="userSpaceOnUse">
            <stop stop-color="#EE758C"/>
            <stop offset="1" stop-color="#E444CB"/>
        </linearGradient>
        <linearGradient id="paint1_linear_534_902" x1="29.9999" y1="3.5" x2="10.9999" y2="36.5" gradientUnits="userSpaceOnUse">
            <stop stop-color="#E444CB"/>
            <stop offset="1" stop-color="#6825EB"/>
        </linearGradient>
        <linearGradient id="paint2_linear_534_902" x1="0.999968" y1="-0.0118155" x2="26.3287" y2="7.79134" gradientUnits="userSpaceOnUse">
            <stop stop-color="#00FFF0"/>
            <stop offset="1" stop-color="#BD00FF"/>
        </linearGradient>
        <linearGradient id="paint3_linear_534_902" x1="30.0088" y1="3.43887" x2="10.7798" y2="36.5695" gradientUnits="userSpaceOnUse">
            <stop stop-color="#E444CB"/>
            <stop offset="1" stop-color="#6825EB"/>
        </linearGradient>
        <linearGradient id="paint4_linear_534_902" x1="27.3347" y1="0.0164638" x2="4.67597" y2="35.7926" gradientUnits="userSpaceOnUse">
            <stop stop-color="#BD00FF"/>
            <stop offset="0.489583" stop-color="#FF8700"/>
            <stop offset="1" stop-color="#FFF500"/>
        </linearGradient>
    </defs>
</svg>