<svg width="134" height="56" viewBox="0 0 134 56" fill="none" xmlns="http://www.w3.org/2000/svg">
<path d="M48.7684 42C47.4358 42 46.157 41.9016 44.932 41.7049C43.7069 41.5082 42.5893 41.235 41.5792 40.8852C40.5905 40.5137 39.7309 40.1093 39.0001 39.6721L41.9338 33.9672C42.772 34.4481 43.6102 34.8525 44.4484 35.1803C45.3081 35.4863 46.157 35.7158 46.9952 35.8689C47.8549 36.0219 48.7039 36.0984 49.5421 36.0984C50.2083 36.0984 50.7564 36.0437 51.1862 35.9344C51.6376 35.8251 51.9707 35.6721 52.1856 35.4754C52.422 35.2568 52.5402 35.0164 52.5402 34.7541C52.5402 34.4044 52.3468 34.1202 51.96 33.9016C51.5731 33.6831 51.0573 33.4863 50.4125 33.3115C49.7892 33.1366 49.0907 32.9617 48.317 32.7869C47.5648 32.5902 46.8018 32.3497 46.0281 32.0656C45.2544 31.7596 44.5451 31.377 43.9004 30.918C43.2771 30.459 42.772 29.8798 42.3852 29.1803C41.9983 28.4809 41.8049 27.6284 41.8049 26.623C41.8049 24.8743 42.2562 23.3552 43.1589 22.0656C44.083 20.776 45.3941 19.7814 47.092 19.082C48.8113 18.3607 50.8531 18 53.2173 18C54.8937 18 56.4518 18.1749 57.8918 18.5246C59.3533 18.8525 60.6106 19.3333 61.6637 19.9672L58.9235 25.6066C58.0208 25.0383 57.0321 24.612 55.9575 24.3279C54.9044 24.0437 53.8298 23.9016 52.7337 23.9016C52.0029 23.9016 51.3904 23.9781 50.8961 24.1311C50.4018 24.2623 50.0257 24.4481 49.7677 24.6885C49.5313 24.929 49.4131 25.1803 49.4131 25.4426C49.4131 25.7923 49.6066 26.0874 49.9934 26.3279C50.3803 26.5464 50.8961 26.7432 51.5409 26.918C52.1856 27.071 52.8841 27.2459 53.6364 27.4426C54.4101 27.6175 55.1731 27.847 55.9253 28.1311C56.699 28.3934 57.4082 28.7541 58.053 29.2131C58.6978 29.6503 59.2136 30.2186 59.6005 30.918C59.9873 31.5956 60.1807 32.4372 60.1807 33.4426C60.1807 35.1475 59.7187 36.6448 58.7945 37.9344C57.8703 39.2022 56.5486 40.1967 54.8292 40.918C53.1313 41.6393 51.111 42 48.7684 42Z" fill="black"/>
<path d="M70.7945 27.0492H80.8529L79.7568 32.623H69.6984L70.7945 27.0492ZM69.6017 35.6393H80.9173L79.7568 41.4754H60.994L65.5074 18.5246H83.851L82.6905 24.3607H71.8261L69.6017 35.6393Z" fill="black"/>
<path d="M89.4633 41.4754L84.4341 18.5246H92.2358L96.2978 37.9672H91.3331L103.197 18.5246H110.999L96.9426 41.4754H89.4633Z" fill="black"/>
<path d="M107.242 41.4754L111.756 18.5246H118.01L126.489 32.4918H123.845L126.585 18.5246H134L129.487 41.4754H123.232L114.754 27.5082H117.397L114.657 41.4754H107.242Z" fill="black"/>
<g filter="url(#filter0_dd_569_1146)">
<path d="M10.9211 10C10.9211 7.79086 12.712 6 14.9211 6H34.9211C37.1303 6 38.9211 7.79086 38.9211 10C38.9211 12.2091 37.1303 14 34.9211 14H14.9211C12.712 14 10.9211 12.2091 10.9211 10Z" fill="url(#paint0_linear_569_1146)"/>
<path d="M10.9211 10C10.9211 7.79086 12.712 6 14.9211 6H34.9211C37.1303 6 38.9211 7.79086 38.9211 10C38.9211 12.2091 37.1303 14 34.9211 14H14.9211C12.712 14 10.9211 12.2091 10.9211 10Z" fill="url(#paint1_linear_569_1146)"/>
<path d="M16.9905 41.266C15.0774 40.1615 14.4219 37.7151 15.5264 35.8019L31.5264 8.08911C32.631 6.17594 35.0774 5.52044 36.9905 6.62501C38.9037 7.72958 39.5592 10.1759 38.4546 12.0891L22.4546 39.8019C21.3501 41.7151 18.9037 42.3706 16.9905 41.266Z" fill="url(#paint2_linear_569_1146)"/>
</g>
<defs>
<filter id="filter0_dd_569_1146" x="0.00012207" y="0" width="49" height="56" filterUnits="userSpaceOnUse" color-interpolation-filters="sRGB">
<feFlood flood-opacity="0" result="BackgroundImageFix"/>
<feColorMatrix in="SourceAlpha" type="matrix" values="0 0 0 0 0 0 0 0 0 0 0 0 0 0 0 0 0 0 127 0" result="hardAlpha"/>
<feOffset dy="4"/>
<feGaussianBlur stdDeviation="5"/>
<feComposite in2="hardAlpha" operator="out"/>
<feColorMatrix type="matrix" values="0 0 0 0 0 0 0 0 0 0 0 0 0 0 0 0 0 0 0.25 0"/>
<feBlend mode="normal" in2="BackgroundImageFix" result="effect1_dropShadow_569_1146"/>
<feColorMatrix in="SourceAlpha" type="matrix" values="0 0 0 0 0 0 0 0 0 0 0 0 0 0 0 0 0 0 127 0" result="hardAlpha"/>
<feOffset dy="2"/>
<feComposite in2="hardAlpha" operator="out"/>
<feColorMatrix type="matrix" values="0 0 0 0 1 0 0 0 0 1 0 0 0 0 1 0 0 0 1 0"/>
<feBlend mode="normal" in2="effect1_dropShadow_569_1146" result="effect2_dropShadow_569_1146"/>
<feBlend mode="normal" in="SourceGraphic" in2="effect2_dropShadow_569_1146" result="shape"/>
</filter>
<linearGradient id="paint0_linear_569_1146" x1="10.9211" y1="10" x2="38.9211" y2="10" gradientUnits="userSpaceOnUse">
<stop stop-color="#FF55BB"/>
<stop offset="0.947917" stop-color="#E444CB"/>
</linearGradient>
<linearGradient id="paint1_linear_569_1146" x1="39.0001" y1="14" x2="21.5001" y2="4.5" gradientUnits="userSpaceOnUse">
<stop stop-color="#46003F"/>
<stop offset="1" stop-color="#6A0060" stop-opacity="0"/>
</linearGradient>
<linearGradient id="paint2_linear_569_1146" x1="40.0001" y1="9.5" x2="21.0001" y2="42.5" gradientUnits="userSpaceOnUse">
<stop stop-color="#FF75E9"/>
<stop offset="0.484375" stop-color="#AE00FF"/>
<stop offset="1" stop-color="#6825EB"/>
</linearGradient>
</defs>
</svg>
